<svg width="256" height="418" viewBox="0 0 256 418" fill="none" xmlns="http://www.w3.org/2000/svg">
<path opacity="0.1" d="M-11 2H228.082L254 26.4161V397H-11V2Z" stroke="url(#paint0_linear_4941_29360)" stroke-width="4"/>
<path opacity="0.3" d="M-32 18H219L235 32.5V416H-32V18Z" stroke="url(#paint1_linear_4941_29360)" stroke-width="4"/>
<mask id="mask0_4941_29360" style="mask-type:alpha" maskUnits="userSpaceOnUse" x="-32" y="18" width="267" height="398">
<path d="M-32 18H219L235 32.5V416H-32V18Z" fill="url(#paint2_linear_4941_29360)"/>
</mask>
<g mask="url(#mask0_4941_29360)">
<path d="M15.6008 354.898L14.9285 354.003L19.9708 350.228C20.4881 349.84 20.9079 349.338 21.197 348.76C21.4862 348.182 21.6367 347.546 21.6367 346.9C21.6367 346.254 21.4862 345.617 21.197 345.04C20.9079 344.462 20.4881 343.96 19.9708 343.572C19.3144 343.08 18.7816 342.443 18.4147 341.71C18.0478 340.977 17.8568 340.169 17.8568 339.35C17.8568 338.53 18.0478 337.722 18.4147 336.989C18.7816 336.256 19.3144 335.619 19.9708 335.127C20.4881 334.739 20.9079 334.237 21.197 333.659C21.4862 333.082 21.6367 332.445 21.6367 331.799C21.6367 331.153 21.4862 330.517 21.197 329.939C20.9079 329.362 20.4881 328.859 19.9708 328.471L19.2901 327.96C18.6842 327.506 18.1831 326.927 17.8209 326.263C17.4586 325.599 17.2436 324.865 17.1905 324.111C17.1373 323.357 17.2473 322.6 17.5129 321.891C17.7785 321.183 18.1935 320.54 18.7298 320.007L19.9204 318.821L20.7104 319.609L19.5226 320.798C19.1003 321.219 18.7737 321.726 18.565 322.284C18.3562 322.843 18.2701 323.439 18.3127 324.034C18.3552 324.628 18.5252 325.206 18.8113 325.729C19.0974 326.252 19.4929 326.708 19.9708 327.065L20.6515 327.577C21.3085 328.068 21.8417 328.705 22.209 329.438C22.5762 330.171 22.7675 330.98 22.7675 331.799C22.7675 332.619 22.5762 333.427 22.209 334.16C21.8417 334.893 21.3085 335.53 20.6515 336.022C20.1338 336.409 19.7135 336.911 19.424 337.489C19.1345 338.067 18.9838 338.704 18.9838 339.35C18.9838 339.995 19.1345 340.632 19.424 341.21C19.7135 341.788 20.1338 342.29 20.6515 342.677C21.3085 343.169 21.8417 343.806 22.209 344.539C22.5762 345.272 22.7675 346.08 22.7675 346.9C22.7675 347.719 22.5762 348.528 22.209 349.261C21.8417 349.994 21.3085 350.631 20.6515 351.123L15.6008 354.898Z" fill="#1E2022"/>
<path d="M25.0131 354.898L19.9708 351.123C19.3144 350.631 18.7816 349.993 18.4147 349.26C18.0478 348.527 17.8567 347.719 17.8567 346.9C17.8567 346.081 18.0478 345.273 18.4147 344.54C18.7816 343.807 19.3144 343.169 19.9708 342.677C20.4881 342.29 20.9079 341.787 21.197 341.21C21.4861 340.632 21.6366 339.995 21.6366 339.35C21.6366 338.704 21.4861 338.067 21.197 337.49C20.9079 336.912 20.4881 336.409 19.9708 336.022C19.3144 335.53 18.7816 334.892 18.4147 334.159C18.0478 333.427 17.8567 332.618 17.8567 331.799C17.8567 330.98 18.0478 330.172 18.4147 329.439C18.7816 328.706 19.3144 328.068 19.9708 327.577L20.6515 327.065C21.1295 326.708 21.5249 326.252 21.811 325.729C22.0971 325.206 22.2672 324.628 22.3097 324.034C22.3522 323.439 22.2662 322.843 22.0574 322.284C21.8486 321.726 21.522 321.219 21.0997 320.798L19.912 319.609L20.7019 318.821L21.8925 320.007C22.4288 320.541 22.8438 321.183 23.1094 321.892C23.375 322.6 23.485 323.357 23.4319 324.111C23.3787 324.865 23.1637 325.599 22.8015 326.263C22.4392 326.927 21.9381 327.506 21.3322 327.96L20.6515 328.471C20.1337 328.859 19.7135 329.361 19.424 329.939C19.1345 330.516 18.9838 331.153 18.9838 331.799C18.9838 332.445 19.1345 333.082 19.424 333.66C19.7135 334.237 20.1337 334.74 20.6515 335.127C21.3085 335.618 21.8417 336.256 22.2089 336.989C22.5762 337.722 22.7674 338.53 22.7674 339.35C22.7674 340.169 22.5762 340.977 22.2089 341.71C21.8417 342.443 21.3085 343.081 20.6515 343.572C20.1337 343.96 19.7135 344.462 19.424 345.04C19.1345 345.617 18.9838 346.254 18.9838 346.9C18.9838 347.546 19.1345 348.183 19.424 348.76C19.7135 349.338 20.1337 349.84 20.6515 350.228L25.6939 354.003L25.0131 354.898Z" fill="#1E2022"/>
<path d="M37.098 355.242L36.2997 354.45L36.6919 354.053C39.3055 351.402 39.3055 346.002 36.6919 343.351L36.6386 343.293C33.6608 340.06 33.6048 334.313 36.5182 330.988C38.9833 328.192 39.0113 323.217 36.5798 320.362L36.2156 319.937L37.056 319.212L37.4202 319.637C40.2215 322.937 40.2019 328.471 37.3474 331.721C34.787 334.64 34.8262 339.688 37.451 342.526L37.4902 342.571C40.5296 345.647 40.5296 351.732 37.4762 354.828L37.098 355.242Z" fill="#1E2022"/>
<path d="M36.5882 355.242L36.1932 354.842C33.1398 351.746 33.1398 345.67 36.1932 342.571L36.2212 342.543C38.8376 339.702 38.8853 334.655 36.3249 331.735C33.4703 328.486 33.4367 322.951 36.252 319.652L36.6162 319.227L37.4566 319.951L37.1148 320.376C34.6833 323.228 34.7113 328.192 37.1737 331.002C40.0898 334.322 40.0338 340.068 37.0532 343.307L37.014 343.351C34.3864 346.016 34.3864 351.416 37 354.068L37.395 354.451L36.5882 355.242Z" fill="#1E2022"/>
<path d="M36.5835 465.954C36.3636 465.735 36.0071 465.735 35.7872 465.954L27.2268 474.501L18.6664 465.954C18.4465 465.735 18.09 465.735 17.8701 465.954L16.6756 467.147C16.4557 467.366 16.4557 467.722 16.6756 467.942L25.236 476.488L16.6756 485.035C16.4557 485.254 16.4557 485.61 16.6756 485.83L17.8701 487.022C18.09 487.242 18.4465 487.242 18.6664 487.022L27.2268 478.476L35.7872 487.022C36.0071 487.242 36.3636 487.242 36.5835 487.022L37.778 485.83C37.9979 485.61 37.9979 485.254 37.778 485.035L29.2176 476.488L37.778 467.942C37.9979 467.722 37.9979 467.366 37.778 467.147L36.5835 465.954Z" fill="#1E2022"/>
<path d="M27.3821 388.943C28.1234 388.944 28.8572 389.092 29.5402 389.38C30.2232 389.667 30.8416 390.088 31.3591 390.618C31.8678 391.125 32.2711 391.728 32.546 392.391C32.8208 393.055 32.9618 393.766 32.9608 394.484C32.9246 397.371 30.5529 402.395 27.3821 403.81C24.2149 402.395 21.8432 397.371 21.8034 394.484C21.8031 393.766 21.9447 393.054 22.2202 392.391C22.4957 391.728 22.8995 391.125 23.4087 390.618C23.9259 390.088 24.5443 389.667 25.2274 389.379C25.9105 389.091 26.6444 388.943 27.3857 388.943M27.3857 386.778C25.3326 386.784 23.3652 387.6 21.9134 389.05C20.4616 390.499 19.6435 392.463 19.6378 394.512C19.692 398.342 22.7832 404.784 27.3857 406.112C31.9918 404.784 35.0831 398.342 35.1337 394.512C35.1289 392.463 34.3111 390.498 32.8591 389.049C31.4071 387.599 29.4391 386.783 27.3857 386.778Z" fill="#1E2022"/>
<path d="M37.068 404.181H17.6999V408.047H37.068V404.181Z" fill="#1E2022"/>
<path d="M29.32 408.047H25.4478V427.381H29.32V408.047Z" fill="#1E2022"/>
<path d="M28.2824 553.092V554.568C30.3852 554.555 32.4752 554.896 34.4649 555.575L43.7856 558.863L36.8619 560.758C30.6644 562.423 24.1361 562.423 17.9385 560.758L11.333 558.953L22.6278 555.412C24.4591 554.854 26.3641 554.574 28.2788 554.582V553.106M28.2788 553.106C26.0607 553.094 23.8534 553.415 21.7312 554.059L8.88898 558.083C7.6091 558.487 7.73927 559.621 9.09869 559.909L17.1359 562.118C23.8655 563.923 30.953 563.923 37.6826 562.118L45.9549 559.866C47.2781 559.581 47.4481 558.491 46.2369 558.061L35.47 554.268C33.1598 553.476 30.7323 553.078 28.2896 553.092L28.2788 553.106Z" fill="#1E2022"/>
<path d="M28.2824 530.992V532.465C30.3854 532.454 32.4754 532.795 34.4649 533.476L43.7856 536.767L36.8619 538.662C30.6641 540.325 24.1364 540.325 17.9386 538.662L11.3331 536.857L22.6278 533.32C24.4589 532.761 26.3639 532.48 28.2788 532.487V530.992M28.2788 530.992C26.06 530.985 23.8527 531.311 21.7312 531.96L8.88901 535.984C7.60913 536.385 7.73929 537.518 9.09871 537.81L17.1287 540.016C23.8577 541.825 30.9464 541.825 37.6754 540.016L45.9549 537.76C47.2781 537.478 47.4481 536.385 46.2369 535.955L35.47 532.165C33.1568 531.375 30.7272 530.979 28.2824 530.992H28.2788Z" fill="#1E2022"/>
<path d="M133.525 333.474H120.111C118.46 333.474 116.876 332.82 115.709 331.654C114.541 330.489 113.885 328.908 113.885 327.26C113.885 325.612 114.541 324.031 115.709 322.866C116.876 321.7 118.46 321.046 120.111 321.046H133.525V322.446H120.111C118.832 322.446 117.605 322.953 116.701 323.856C115.796 324.759 115.288 325.983 115.288 327.26C115.288 328.537 115.796 329.761 116.701 330.664C117.605 331.567 118.832 332.074 120.111 332.074H133.525V333.474Z" fill="#1E2022"/>
<path d="M135.103 324.022C134.652 324.022 134.212 323.888 133.837 323.638C133.462 323.388 133.17 323.033 132.997 322.617C132.825 322.201 132.78 321.743 132.868 321.302C132.955 320.86 133.173 320.455 133.491 320.137C133.81 319.818 134.216 319.602 134.659 319.514C135.101 319.426 135.559 319.471 135.976 319.643C136.392 319.816 136.748 320.107 136.999 320.482C137.249 320.856 137.383 321.296 137.383 321.746C137.382 322.349 137.142 322.927 136.714 323.354C136.287 323.781 135.708 324.021 135.103 324.022ZM135.103 320.871C134.93 320.871 134.76 320.922 134.616 321.018C134.472 321.114 134.36 321.251 134.293 321.411C134.227 321.571 134.21 321.747 134.243 321.917C134.277 322.086 134.361 322.242 134.483 322.365C134.606 322.487 134.762 322.571 134.932 322.604C135.102 322.638 135.279 322.621 135.439 322.554C135.599 322.488 135.736 322.376 135.832 322.232C135.929 322.088 135.98 321.919 135.98 321.746C135.98 321.514 135.888 321.291 135.723 321.127C135.559 320.963 135.336 320.871 135.103 320.871Z" fill="#1E2022"/>
<path d="M135.103 334.174C134.652 334.174 134.212 334.041 133.837 333.791C133.462 333.541 133.17 333.185 132.997 332.769C132.825 332.354 132.78 331.896 132.868 331.455C132.955 331.013 133.173 330.608 133.491 330.289C133.81 329.971 134.216 329.754 134.659 329.667C135.101 329.579 135.559 329.624 135.976 329.796C136.392 329.968 136.748 330.26 136.999 330.634C137.249 331.009 137.383 331.449 137.383 331.899C137.382 332.502 137.142 333.08 136.714 333.507C136.287 333.933 135.708 334.173 135.103 334.174ZM135.103 331.023C134.93 331.023 134.76 331.075 134.616 331.171C134.472 331.267 134.36 331.404 134.293 331.564C134.227 331.724 134.21 331.9 134.243 332.069C134.277 332.239 134.361 332.395 134.483 332.517C134.606 332.64 134.762 332.723 134.932 332.757C135.102 332.791 135.279 332.773 135.439 332.707C135.599 332.641 135.736 332.529 135.832 332.385C135.929 332.241 135.98 332.072 135.98 331.899C135.98 331.666 135.888 331.444 135.723 331.28C135.559 331.116 135.336 331.023 135.103 331.023Z" fill="#1E2022"/>
<path d="M102.582 323.57C102.595 323.52 102.596 323.468 102.586 323.417C102.576 323.367 102.555 323.319 102.525 323.278C102.494 323.237 102.455 323.202 102.41 323.178C102.365 323.153 102.315 323.139 102.263 323.136L97.2656 321.735C97.0296 321.671 96.8215 321.531 96.6732 321.336C96.5249 321.142 96.4447 320.905 96.4449 320.66V319.936H104.22L106.871 316.785V319.365L108.727 316.785C109.884 319.365 106.64 322.652 106.64 322.652L105.914 324.021L105.49 327.172H103.456L102.582 323.57Z" fill="#1E2022"/>
<path fill-rule="evenodd" clip-rule="evenodd" d="M103.632 355.523V327.172H105.018V355.523H103.632Z" fill="#1E2022"/>
<path d="M135.426 349.95C135.587 350.098 135.703 350.29 135.76 350.502C135.816 350.714 135.811 350.938 135.745 351.147C135.704 351.337 135.611 351.512 135.477 351.652C135.343 351.792 135.172 351.892 134.984 351.942C134.984 351.942 133.872 351.767 133.392 352.246C132.911 352.726 133.185 353.944 131.024 354.102C128.864 354.259 126.465 352.026 122.306 352.828C118.147 353.629 113.889 354.424 113.023 353.783C112.157 353.143 111.104 352.425 111.104 352.425C111.104 352.425 113.822 354.424 117.824 352.348C121.825 350.272 126.304 350.828 127.346 351.147C128.387 351.466 127.745 352.267 130.544 351.469C133.343 350.671 134.304 350.59 133.823 349.95C133.518 349.509 133.282 349.025 133.122 348.514C133.122 348.514 134.174 350.111 134.402 349.95C134.754 349.641 134.981 349.216 135.044 348.752C135.026 348.353 135.279 349.631 135.426 349.95Z" fill="#1E2022"/>
<path d="M103.552 465.291C103.552 464.853 103.908 464.498 104.346 464.498H126.096C126.271 464.498 126.413 464.64 126.413 464.815V484.469C126.413 484.644 126.271 484.786 126.096 484.786H104.346C103.908 484.786 103.552 484.431 103.552 483.993V465.291Z" fill="#1E2022"/>
<path d="M103.552 469.095C103.552 468.657 103.908 468.302 104.346 468.302H128.636C128.811 468.302 128.953 468.444 128.953 468.619V489.541C128.953 489.716 128.811 489.858 128.636 489.858H104.346C103.908 489.858 103.552 489.503 103.552 489.065V469.095Z" fill="#1E2022"/>
<path d="M121.333 476.227C121.333 476.052 121.475 475.91 121.651 475.91H128.953V482.25H121.651C121.475 482.25 121.333 482.108 121.333 481.933V476.227Z" fill="#1E2022"/>
<path d="M120.789 397.026L133.212 417.696H108.366L120.789 397.026ZM120.789 393.695L105.333 419.411H136.245L120.789 393.695Z" fill="#1E2022"/>
<path d="M112.654 397.026L125.077 417.696H100.231L112.654 397.026ZM112.654 393.695L97.1978 419.411H128.11L112.654 393.695Z" fill="#1E2022"/>
<path d="M133.482 567.653L127.703 561.883L121.923 567.653L116.143 561.883L110.364 567.653L104.584 561.883L98.8042 567.653L97.8955 566.746L104.584 560.072L110.364 565.842L116.143 560.072L121.923 565.842L127.703 560.072L134.391 566.746L133.482 567.653Z" fill="#1E2022"/>
<path d="M133.482 557.556L127.703 551.786L121.923 557.556L116.143 551.786L110.364 557.556L104.584 551.786L98.8042 557.556L97.8955 556.649L104.584 549.975L110.364 555.745L116.143 549.975L121.923 555.745L127.703 549.975L134.391 556.649L133.482 557.556Z" fill="#1E2022"/>
<path d="M110.014 530.259C111.384 530.259 112.724 530.665 113.863 531.425C115.003 532.185 115.891 533.265 116.415 534.529C116.94 535.793 117.077 537.184 116.81 538.526C116.542 539.867 115.882 541.1 114.913 542.067C113.944 543.035 112.709 543.694 111.365 543.96C110.021 544.227 108.628 544.09 107.362 543.567C106.096 543.043 105.013 542.157 104.252 541.019C103.491 539.882 103.084 538.544 103.084 537.176C103.086 535.342 103.817 533.584 105.116 532.287C106.415 530.99 108.176 530.261 110.014 530.259ZM110.014 528.336C108.262 528.336 106.55 528.854 105.094 529.826C103.637 530.797 102.502 532.178 101.832 533.793C101.162 535.409 100.986 537.186 101.328 538.901C101.67 540.616 102.513 542.191 103.752 543.427C104.99 544.664 106.568 545.506 108.286 545.847C110.004 546.188 111.784 546.013 113.402 545.344C115.021 544.675 116.404 543.541 117.377 542.088C118.35 540.634 118.869 538.925 118.869 537.176C118.869 534.832 117.936 532.583 116.276 530.925C114.615 529.267 112.362 528.336 110.014 528.336Z" fill="#1E2022"/>
<path d="M121.2 546.017C126.091 546.017 130.056 542.059 130.056 537.176C130.056 532.294 126.091 528.336 121.2 528.336C116.31 528.336 112.345 532.294 112.345 537.176C112.345 542.059 116.31 546.017 121.2 546.017Z" fill="#1E2022"/>
<path fill-rule="evenodd" clip-rule="evenodd" d="M193.419 458.745L185.956 475.892L184.685 475.341L192.148 458.193L193.419 458.745Z" fill="#1E2022"/>
<path d="M191.912 458.689C191.912 458.689 193.676 454.21 195.788 457.859C197.899 461.508 194.153 471.368 194.063 472.833C193.973 474.299 192.107 471.985 192.107 471.985L190.733 472.621L189.952 473.783L188.839 471.935C188.839 471.935 194.985 461.385 191.912 458.689Z" fill="#1E2022"/>
<path fill-rule="evenodd" clip-rule="evenodd" d="M207.881 458.833L211.135 462.081L214.389 458.833L217.643 462.081L220.897 458.833L224.641 462.571L223.661 463.549L220.897 460.79L217.643 464.038L214.389 460.79L211.135 464.038L207.881 460.79L204.628 464.038L200.884 460.301L201.863 459.322L204.628 462.081L207.881 458.833Z" fill="#1E2022"/>
<path fill-rule="evenodd" clip-rule="evenodd" d="M207.881 465.33L211.135 468.578L214.389 465.33L217.643 468.578L220.897 465.33L224.641 469.067L223.661 470.045L220.897 467.286L217.643 470.534L214.389 467.286L211.135 470.534L207.881 467.286L204.627 470.534L200.884 466.797L201.863 465.819L204.627 468.578L207.881 465.33Z" fill="#1E2022"/>
<path fill-rule="evenodd" clip-rule="evenodd" d="M207.881 471.827L211.135 475.075L214.389 471.827L217.643 475.075L220.897 471.827L224.641 475.564L223.661 476.542L220.897 473.783L217.643 477.031L214.389 473.783L211.135 477.031L207.881 473.783L204.627 477.031L200.884 473.294L201.863 472.316L204.627 475.075L207.881 471.827Z" fill="#1E2022"/>
<path d="M205.394 486.971C207.505 486.96 209.6 487.334 211.577 488.075L220.901 491.684L213.977 493.76C207.802 495.584 201.229 495.584 195.054 493.76L188.448 491.775L199.747 487.87C201.567 487.265 203.475 486.961 205.394 486.971ZM205.394 485.347C203.165 485.339 200.949 485.697 198.836 486.404L186.008 490.811C184.728 491.251 184.858 492.493 186.218 492.811L194.255 495.229C200.96 497.207 208.096 497.207 214.802 495.229L223.052 492.746C224.375 492.439 224.545 491.241 223.334 490.775L212.574 486.621C210.28 485.758 207.846 485.323 205.394 485.336V485.347Z" fill="#1E2022"/>
<path d="M204.628 493.467C205.975 493.467 207.068 492.377 207.068 491.031C207.068 489.686 205.975 488.595 204.628 488.595C203.28 488.595 202.187 489.686 202.187 491.031C202.187 492.377 203.28 493.467 204.628 493.467Z" fill="#1E2022"/>
<path d="M211.409 418.17H219.831L223.042 414.964L217.227 397.523L212.82 403.31L211.409 418.17Z" fill="#1E2022"/>
<path d="M211.403 418.171H219.825L223.037 414.964L217.221 397.523L212.815 403.31L211.403 418.171Z" fill="#1E2022"/>
<path d="M209.957 414.728H224.214V415.354H209.957V414.728Z" fill="#1E2022"/>
<path d="M209.957 411.913H224.214V412.539H209.957V411.913Z" fill="#1E2022"/>
<path d="M209.957 409.098H224.214V409.723H209.957V409.098Z" fill="#1E2022"/>
<path d="M209.957 406.282H224.214V406.908H209.957V406.282Z" fill="#1E2022"/>
<path d="M209.957 403.465H224.214V404.091H209.957V403.465Z" fill="#1E2022"/>
<path d="M209.957 400.651H224.214V401.277H209.957V400.651Z" fill="#1E2022"/>
<path d="M209.957 397.834H224.214V398.46H209.957V397.834Z" fill="#1E2022"/>
<path d="M201.338 418.17H192.915L189.703 414.964L195.521 397.523L199.927 403.31L201.338 418.17Z" fill="#1E2022"/>
<path d="M201.35 418.171H192.927L189.715 414.965L195.532 397.524L199.938 403.311L201.35 418.171Z" fill="#1E2022"/>
<path d="M202.788 415.356H188.53V414.731H202.788V415.356Z" fill="#1E2022"/>
<path d="M202.788 412.54H188.53V411.914H202.788V412.54Z" fill="#1E2022"/>
<path d="M202.788 409.725H188.53V409.099H202.788V409.725Z" fill="#1E2022"/>
<path d="M202.788 406.908H188.53V406.282H202.788V406.908Z" fill="#1E2022"/>
<path d="M202.788 404.093H188.53V403.467H202.788V404.093Z" fill="#1E2022"/>
<path d="M202.788 401.276H188.53V400.651H202.788V401.276Z" fill="#1E2022"/>
<path d="M202.788 398.461H188.53V397.835H202.788V398.461Z" fill="#1E2022"/>
<path d="M212.812 403.495L217.218 397.708C217.218 397.708 213.95 395.585 206.859 395.585C199.767 395.585 195.518 397.708 195.518 397.708L199.924 403.495H212.812Z" fill="#1E2022"/>
<path d="M212.83 403.495L217.236 397.708C217.236 397.708 213.968 395.585 206.877 395.585C199.785 395.585 195.536 397.708 195.536 397.708L199.942 403.495H212.83Z" fill="#1E2022"/>
<path d="M208.359 406.627L215.685 394.416L216.223 394.737L208.896 406.949L208.359 406.627Z" fill="#1E2022"/>
<path d="M207.443 406.088L212.27 392.694L212.86 392.906L208.032 406.3L207.443 406.088Z" fill="#1E2022"/>
<path d="M206.599 405.327L208.5 391.219L209.121 391.302L207.22 405.41L206.599 405.327Z" fill="#1E2022"/>
<path d="M203.87 406.949L196.544 394.737L197.081 394.416L204.408 406.627L203.87 406.949Z" fill="#1E2022"/>
<path d="M204.739 406.303L199.912 392.909L200.501 392.697L205.329 406.091L204.739 406.303Z" fill="#1E2022"/>
<path d="M205.553 405.408L203.652 391.3L204.273 391.217L206.174 405.324L205.553 405.408Z" fill="#1E2022"/>
<path fill-rule="evenodd" clip-rule="evenodd" d="M188.583 354.093V318.431L222.716 354.093H188.583ZM219.339 352.652L190.028 322.027V352.652H219.339Z" fill="#1E2022"/>
<path fill-rule="evenodd" clip-rule="evenodd" d="M193.46 318.431H222.716V347.615L193.46 318.431ZM221.271 344.135V319.872H196.949L221.271 344.135Z" fill="#1E2022"/>
<path d="M204.754 548.735V560.444H206.546V548.735L215.58 557.755L216.847 556.489L207.813 547.47H219.541V545.68H207.814L216.847 536.661L215.58 535.396L206.546 544.415V532.707H204.754V544.415L195.72 535.396L194.452 536.661L203.486 545.68H191.759V547.47H203.486L194.452 556.489L195.72 557.754L204.754 548.735Z" fill="#1E2022"/>
<path d="M204.754 128.542V140.25H206.546V128.542L215.58 137.561L216.847 136.296L207.813 127.277H219.541V125.487H207.814L216.847 116.468L215.58 115.203L206.546 124.222V112.513H204.754V124.222L195.72 115.203L194.452 116.468L203.486 125.487H191.759V127.277H203.486L194.452 136.296L195.72 137.561L204.754 128.542Z" fill="#1E2022"/>
<path d="M12.8793 61.7477H10.0789V72.9299H12.8793V61.7477Z" fill="#1E2022"/>
<path d="M18.48 61.7478H15.6796V72.93H18.48V61.7478Z" fill="#1E2022"/>
<path d="M24.0808 61.7478H21.2804V72.93H24.0808V61.7478Z" fill="#1E2022"/>
<path d="M22.8363 40.6258V52.1185H13.5173L20.4249 46.3721L13.5173 40.6258H22.8363ZM24.081 39.3833H10.079L18.4802 46.3721L10.079 53.361H24.081V39.3833Z" fill="#1E2022"/>
<path d="M29.6817 53.9823V52.7399C29.8155 52.7399 43.0613 52.6436 43.0613 44.9745C43.0822 44.4184 42.9644 43.8658 42.7183 43.3665C42.4723 42.8671 42.1058 42.4366 41.6518 42.1137C40.668 41.4528 39.5015 41.116 38.3162 41.1508C35.7896 41.1508 33.1044 42.4896 33.1044 44.9745C33.1044 47.068 35.0615 47.1488 35.2824 47.1488V48.3913C34.1001 48.3913 31.8598 47.6768 31.8598 44.9745C31.8598 41.6851 35.186 39.9084 38.3162 39.9084C39.7653 39.8746 41.1886 40.295 42.3861 41.1104C42.9985 41.5485 43.4938 42.1298 43.8285 42.8036C44.1632 43.4773 44.3272 44.2228 44.3059 44.9745C44.3059 48.7019 41.7327 51.4508 36.86 52.9076C34.5242 53.5759 32.1111 53.9372 29.6817 53.9823Z" fill="#1E2022"/>
<path d="M29.6817 73.551V72.3085C29.8155 72.3085 43.0613 72.2122 43.0613 64.5431C43.0822 63.9871 42.9644 63.4345 42.7183 62.9351C42.4723 62.4358 42.1058 62.0053 41.6518 61.6824C40.668 61.0214 39.5015 60.6847 38.3162 60.7195C35.7896 60.7195 33.1044 62.0582 33.1044 64.5431C33.1044 66.6367 35.0615 66.7175 35.2824 66.7175V67.9599C34.1001 67.9599 31.8598 67.2455 31.8598 64.5431C31.8598 61.2537 35.186 59.477 38.3162 59.477C39.7653 59.4433 41.1886 59.8637 42.3861 60.6791C42.9985 61.1171 43.4938 61.6985 43.8285 62.3722C44.1632 63.0459 44.3272 63.7914 44.3059 64.5431C44.3059 68.2705 41.7327 71.0195 36.86 72.4763C34.5242 73.1446 32.1111 73.5058 29.6817 73.551Z" fill="#1E2022"/>
<path d="M13.8147 197.523V209.48L33.2214 212.71L33.658 212.781L36.8089 211.207H43.1312L43.7505 213.065H10.4302V197.523H13.8147ZM15.1685 196.172H9.07641V214.417H45.6289L44.1059 209.855H36.4908L33.4448 211.376L15.1685 208.335V196.172Z" fill="#1E2022"/>
<path d="M41.0598 191.611H14.4069C11.0935 191.611 8.3994 189.222 8.3994 186.29C8.3994 183.357 11.107 180.968 14.4069 180.968H41.0598V182.168H14.4069C11.8414 182.168 9.7532 184.016 9.7532 186.29C9.7532 188.563 11.8414 190.412 14.4069 190.412H41.0598V191.611Z" fill="#1E2022"/>
<path d="M41.9059 183.84C41.4708 183.84 41.0455 183.711 40.6837 183.47C40.322 183.229 40.04 182.886 39.8735 182.484C39.707 182.083 39.6634 181.641 39.7483 181.215C39.8332 180.789 40.0427 180.398 40.3504 180.091C40.658 179.784 41.05 179.575 41.4768 179.49C41.9035 179.405 42.3458 179.449 42.7478 179.615C43.1498 179.781 43.4934 180.063 43.7351 180.424C43.9768 180.785 44.1059 181.21 44.1059 181.644C44.105 182.226 43.8729 182.784 43.4605 183.196C43.0482 183.607 42.4891 183.839 41.9059 183.84ZM41.9059 180.799C41.7386 180.799 41.575 180.849 41.4359 180.942C41.2967 181.034 41.1883 181.166 41.1242 181.321C41.0602 181.475 41.0434 181.645 41.0761 181.809C41.1087 181.973 41.1893 182.123 41.3076 182.241C41.426 182.359 41.5767 182.44 41.7409 182.472C41.905 182.505 42.0751 182.488 42.2297 182.424C42.3843 182.36 42.5165 182.252 42.6095 182.113C42.7024 181.974 42.7521 181.811 42.7521 181.644C42.7521 181.42 42.6629 181.205 42.5042 181.047C42.3456 180.888 42.1303 180.799 41.9059 180.799Z" fill="#1E2022"/>
<path d="M39.5368 206.815C41.2191 206.815 42.5828 205.453 42.5828 203.774C42.5828 202.095 41.2191 200.733 39.5368 200.733C37.8545 200.733 36.4907 202.095 36.4907 203.774C36.4907 205.453 37.8545 206.815 39.5368 206.815Z" fill="#1E2022"/>
<path d="M27.5968 109.416V111.236C29.4036 111.231 31.1853 111.658 32.7935 112.48L40.6279 116.539L34.8113 118.884C29.7088 120.937 24.0079 120.937 18.9054 118.884L13.3533 116.645L22.847 112.274C24.3384 111.596 25.9582 111.246 27.5968 111.248V109.428M27.5968 109.428C25.6977 109.422 23.8197 109.825 22.0903 110.608L11.2959 115.58C10.2201 116.075 10.3295 117.476 11.4722 117.834L18.2278 120.565C23.7679 122.794 29.9579 122.794 35.4981 120.565L42.4513 117.774C43.5635 117.425 43.7063 116.075 42.6883 115.547L33.6383 110.863C31.7713 109.906 29.7017 109.41 27.6029 109.416L27.5968 109.428Z" fill="#1E2022"/>
<path d="M43.363 146.742L37.8928 141.282L32.4227 146.742L26.9526 141.282L21.4825 146.742L16.0124 141.282L10.5423 146.742L9.68223 145.884L16.0124 139.564L21.4825 145.025L26.9526 139.564L32.4227 145.025L37.8928 139.564L44.223 145.884L43.363 146.742Z" fill="#1E2022"/>
<path d="M43.363 137.186L37.8928 131.726L32.4227 137.186L26.9526 131.726L21.4825 137.186L16.0124 131.726L10.5423 137.186L9.68223 136.328L16.0124 130.008L21.4825 135.469L26.9526 130.008L32.4227 135.469L37.8928 130.008L44.223 136.328L43.363 137.186Z" fill="#1E2022"/>
<path d="M31.7943 277.557C34.0596 278.965 36.1292 279.969 37.3818 280.054C40.9045 280.353 44.7208 280.313 44.7208 280.313L44.2854 277.092C44.2854 277.092 41.2568 277.217 39.4367 273.806C37.6166 270.396 32.7484 256.558 25.4142 254.431L24.5971 254.196C24.1959 252.294 21.6322 242.341 13.5201 250.701L9.38572 252.164L14.2442 253.737C14.2442 253.737 18.9069 265.272 21.3435 268.778C22.2303 269.94 23.2375 271.002 24.3476 271.944C25.1549 274.91 25.1391 280.66 23.9355 282.682C22.0762 285.803 16.6661 284.892 16.6661 284.892C16.6661 284.892 14.9096 285.676 18.4079 285.666C21.1771 285.666 23.3006 285.901 24.9592 285.921L24.8271 286.011L33.6682 286.141C29.6464 283.709 30.8549 283.599 30.6249 280.977C30.5026 279.754 31.1191 278.516 31.7943 277.557ZM28.7804 284.433L26.9701 284.598L26.4808 284.932C26.2472 284.73 25.9985 284.546 25.7371 284.383C25.7371 284.383 24.8956 276.538 27.3419 276.628C27.8312 276.628 28.3596 276.678 28.9125 276.713C29.3871 279.579 28.7804 284.433 28.7804 284.433Z" fill="#1E2022"/>
<path d="M109.099 74.4222L110.884 73.8891L109.021 67.6902H109.719V64.9007H108.167L107.5 62.6722C107.444 62.4893 107.397 62.3002 107.357 62.1112H109.719V59.3216H107.267C107.364 58.4783 107.629 57.6628 108.046 56.9227L108.459 56.2346C108.984 55.3268 109.328 54.3257 109.471 53.287L110.176 48.5789C110.486 46.4403 110.12 44.218 109.167 42.6342L108.71 41.8748C108.22 40.9769 107.42 40.2865 106.459 39.9314V39.7796H104.596V39.9314C103.636 40.2865 102.836 40.9769 102.345 41.8748L101.889 42.6342C100.936 44.218 100.557 46.4403 100.88 48.5789L101.585 53.287C101.728 54.3257 102.071 55.3268 102.597 56.2346L103.01 56.9227C103.425 57.658 103.69 58.4681 103.789 59.3062H101.336V62.0957H103.69C103.65 62.2847 103.603 62.4738 103.547 62.6567L102.889 64.8976H101.336V67.6871H102.041L100.178 73.886L101.964 74.4191L103.988 67.684H107.074L109.099 74.4222ZM102.721 48.3155C102.467 46.617 102.758 44.81 103.485 43.6012L103.941 42.8418C104.398 42.0856 104.975 41.6516 105.528 41.6516C106.081 41.6516 106.658 42.0856 107.115 42.8418L107.571 43.595C108.297 44.8038 108.589 46.6108 108.335 48.3093L107.627 53.0174C107.521 53.8147 107.261 54.584 106.863 55.2831L106.447 55.9928C105.999 56.761 105.684 57.5994 105.516 58.4724C105.347 57.5994 105.032 56.761 104.584 55.9928L104.168 55.3017C103.77 54.6026 103.51 53.8333 103.404 53.0359L102.721 48.3155ZM104.823 64.8976L105.332 63.2022C105.411 62.9459 105.476 62.6825 105.528 62.4118C105.58 62.6825 105.645 62.9459 105.724 63.2022L106.233 64.8976H104.823Z" fill="#1E2022"/>
<path d="M133.006 74.6607H131.143V46.0744C131.143 44.6564 130.579 43.2965 129.574 42.2938C128.57 41.2911 127.207 40.7278 125.787 40.7278C124.367 40.7278 123.004 41.2911 122 42.2938C120.995 43.2965 120.431 44.6564 120.431 46.0744V61.3206C120.89 61.4696 121.306 61.7255 121.645 62.0671C121.985 62.4086 122.238 62.8261 122.384 63.2848C122.529 63.7435 122.563 64.2303 122.483 64.7048C122.403 65.1792 122.21 65.6278 121.921 66.0132L120.245 68.2448L118.755 67.129L120.431 64.8974C120.561 64.7247 120.64 64.5194 120.659 64.3044C120.679 64.0894 120.638 63.8733 120.541 63.6802C120.444 63.4871 120.296 63.3248 120.112 63.2113C119.928 63.0978 119.716 63.0377 119.5 63.0377H118.568V46.0744C118.568 44.1632 119.329 42.3302 120.683 40.9788C122.036 39.6274 123.872 38.8681 125.787 38.8681C127.702 38.8681 129.538 39.6274 130.891 40.9788C132.245 42.3302 133.006 44.1632 133.006 46.0744V74.6607Z" fill="#1E2022"/>
<path d="M120.343 184.441L121.104 183.596C121.185 183.69 129.333 192.596 134.023 187.391C134.375 187.028 134.641 186.573 134.796 186.068C134.951 185.562 134.99 185.022 134.91 184.495C134.715 183.381 134.209 182.363 133.465 181.584C131.922 179.871 129.463 178.96 127.944 180.646C126.664 182.067 127.811 183.448 127.944 183.6L127.183 184.441C126.46 183.639 125.531 181.638 127.183 179.801C129.196 177.571 132.311 178.633 134.223 180.739C135.13 181.698 135.743 182.947 135.976 184.313C136.082 185.025 136.029 185.754 135.822 186.438C135.614 187.122 135.259 187.74 134.787 188.236C132.504 190.77 129.252 190.887 125.387 188.575C123.551 187.446 121.856 186.056 120.343 184.441Z" fill="#1E2022"/>
<path d="M121.22 204.265L121.981 203.42C122.062 203.51 130.21 212.42 134.9 207.215C135.252 206.852 135.518 206.397 135.673 205.892C135.828 205.386 135.867 204.846 135.787 204.319C135.59 203.204 135.083 202.184 134.338 201.404C132.795 199.695 130.336 198.784 128.817 200.47C127.541 201.891 128.688 203.268 128.817 203.424L128.056 204.265C127.334 203.463 126.404 201.458 128.056 199.625C130.066 197.391 133.184 198.457 135.096 200.563C136.003 201.521 136.616 202.771 136.85 204.136C136.955 204.849 136.902 205.579 136.694 206.263C136.486 206.947 136.13 207.564 135.657 208.06C133.377 210.59 130.126 210.707 126.26 208.399C124.426 207.269 122.732 205.879 121.22 204.265Z" fill="#1E2022"/>
<path d="M102.588 185.34L101.185 185.169C101.185 185.169 99.4664 177.03 104.461 177.384C109.456 177.738 108.519 179.634 109.144 181.02C109.768 182.405 108.674 182.577 108.674 182.577C108.836 182.666 108.962 182.821 109.023 183.011C109.085 183.2 109.077 183.409 109.003 183.593C108.761 184.332 109.487 185.15 108.579 184.935C107.671 184.721 105.794 183.997 105.675 184.733C105.555 185.469 108.095 185.34 109.123 186.01C110.15 186.679 110.876 187.15 111.182 188.898C111.487 190.646 111.725 192.592 112.209 192.46C112.693 192.327 114.51 189.77 114.268 188.898C114.026 188.026 113.844 187.018 114.387 186.563C114.931 186.107 115.296 186.562 115.478 185.959C115.661 185.356 115.236 184.682 116.082 184.616C116.927 184.55 117.414 184.749 117.355 185.006C117.295 185.262 117.053 186.687 117.053 186.687L114.145 193.199C114.145 193.199 117.113 189.91 117.113 189.307C117.113 188.703 117.779 187.36 117.779 187.36C117.779 187.36 117.839 186.889 118.442 186.691C118.84 186.552 119.225 186.373 119.593 186.154L120.136 185.765L120.319 186.154L119.894 188.166L118.323 190.112C118.323 190.112 112.816 200.116 112.574 200.233C112.332 200.35 109.245 192.059 109.245 192.059C109.245 192.059 107.842 197.298 107.551 198.641C107.294 199.921 107.132 201.223 107.067 202.533C107.004 203.471 107.067 203.269 107.186 203.74C107.267 204.047 107.385 204.34 107.537 204.612C107.537 204.612 108.141 204.884 108.323 204.748C108.505 204.612 115.706 200.112 116.25 200.112C116.794 200.112 118.127 201.12 118.186 201.459C118.246 201.798 118.733 201.591 118.249 202.802C118.02 203.401 117.756 203.983 117.46 204.546L114.254 209.181C114.254 209.181 119.943 212 120.185 212.739C120.427 213.479 120.185 216.098 117.765 215.896C115.345 215.694 107.414 214.152 105.72 214.421C104.534 214.543 103.338 214.383 102.213 213.95C102.213 213.95 99.3085 213.95 98.2212 214.218C97.1339 214.487 96.2219 213.829 96.5867 213.545L101.68 211.809C101.68 211.809 100.105 211.003 101.255 205.764C102.406 200.525 102.658 193.81 102.286 192.199C101.915 190.587 101.802 190.385 101.862 189.042C101.922 187.699 102.771 186.22 102.588 185.34Z" fill="#1E2022"/>
<path d="M104.799 144.801L104.126 143.906L109.169 140.131C109.686 139.743 110.106 139.241 110.395 138.663C110.684 138.086 110.834 137.449 110.834 136.803C110.834 136.157 110.684 135.521 110.395 134.943C110.106 134.366 109.686 133.863 109.169 133.475C108.512 132.984 107.979 132.346 107.613 131.613C107.246 130.88 107.055 130.072 107.055 129.253C107.055 128.433 107.246 127.625 107.613 126.892C107.979 126.16 108.512 125.522 109.169 125.03C109.686 124.642 110.106 124.14 110.395 123.562C110.684 122.985 110.834 122.348 110.834 121.702C110.834 121.057 110.684 120.42 110.395 119.842C110.106 119.265 109.686 118.762 109.169 118.375L108.488 117.863C107.882 117.409 107.381 116.83 107.019 116.166C106.656 115.502 106.441 114.768 106.388 114.014C106.335 113.26 106.445 112.503 106.711 111.795C106.976 111.087 107.391 110.444 107.928 109.91L109.118 108.724L109.908 109.513L108.72 110.701C108.298 111.122 107.972 111.629 107.763 112.187C107.554 112.746 107.468 113.342 107.51 113.937C107.553 114.531 107.723 115.109 108.009 115.632C108.295 116.155 108.691 116.611 109.169 116.968L109.849 117.48C110.506 117.971 111.04 118.609 111.407 119.342C111.774 120.075 111.965 120.883 111.965 121.702C111.965 122.522 111.774 123.33 111.407 124.063C111.04 124.796 110.506 125.433 109.849 125.925C109.332 126.312 108.911 126.815 108.622 127.392C108.332 127.97 108.182 128.607 108.182 129.253C108.182 129.899 108.332 130.536 108.622 131.113C108.911 131.691 109.332 132.193 109.849 132.581C110.506 133.072 111.04 133.709 111.407 134.442C111.774 135.175 111.965 135.984 111.965 136.803C111.965 137.623 111.774 138.431 111.407 139.164C111.04 139.897 110.506 140.534 109.849 141.026L104.799 144.801Z" fill="#1E2022"/>
<path d="M114.211 144.801L109.169 141.026C108.512 140.534 107.979 139.896 107.613 139.163C107.246 138.43 107.055 137.622 107.055 136.803C107.055 135.984 107.246 135.176 107.613 134.443C107.979 133.71 108.512 133.072 109.169 132.58C109.686 132.193 110.106 131.69 110.395 131.113C110.684 130.535 110.834 129.898 110.834 129.253C110.834 128.607 110.684 127.97 110.395 127.393C110.106 126.815 109.686 126.313 109.169 125.925C108.512 125.433 107.979 124.795 107.613 124.063C107.246 123.33 107.055 122.522 107.055 121.702C107.055 120.883 107.246 120.075 107.613 119.342C107.979 118.609 108.512 117.971 109.169 117.48L109.849 116.968C110.327 116.611 110.723 116.155 111.009 115.632C111.295 115.109 111.465 114.531 111.508 113.937C111.55 113.342 111.464 112.746 111.255 112.187C111.046 111.629 110.72 111.122 110.298 110.701L109.11 109.513L109.9 108.724L111.09 109.91C111.627 110.444 112.042 111.086 112.307 111.795C112.573 112.503 112.683 113.26 112.63 114.014C112.577 114.768 112.362 115.502 111.999 116.166C111.637 116.83 111.136 117.409 110.53 117.863L109.849 118.374C109.332 118.762 108.911 119.264 108.622 119.842C108.332 120.419 108.182 121.056 108.182 121.702C108.182 122.348 108.332 122.985 108.622 123.563C108.911 124.14 109.332 124.643 109.849 125.03C110.506 125.521 111.039 126.159 111.407 126.892C111.774 127.625 111.965 128.433 111.965 129.253C111.965 130.072 111.774 130.88 111.407 131.613C111.039 132.346 110.506 132.984 109.849 133.475C109.332 133.863 108.911 134.365 108.622 134.943C108.332 135.52 108.182 136.157 108.182 136.803C108.182 137.449 108.332 138.086 108.622 138.664C108.911 139.241 109.332 139.744 109.849 140.131L114.892 143.906L114.211 144.801Z" fill="#1E2022"/>
<path d="M126.296 145.145L125.497 144.354L125.89 143.957C128.503 141.306 128.503 135.906 125.89 133.255L125.836 133.196C122.859 129.963 122.803 124.216 125.716 120.891C128.181 118.095 128.209 113.12 125.778 110.265L125.413 109.84L126.254 109.116L126.618 109.541C129.419 112.84 129.4 118.375 126.545 121.624C123.985 124.544 124.024 129.591 126.649 132.43L126.688 132.474C129.727 135.55 129.727 141.635 126.674 144.731L126.296 145.145Z" fill="#1E2022"/>
<path d="M125.786 145.145L125.391 144.745C122.338 141.65 122.338 135.573 125.391 132.474L125.419 132.446C128.035 129.605 128.083 124.558 125.523 121.638C122.668 118.389 122.635 112.854 125.45 109.555L125.814 109.13L126.654 109.854L126.313 110.279C123.881 113.131 123.909 118.095 126.371 120.905C129.288 124.225 129.232 129.972 126.251 133.21L126.212 133.255C123.584 135.92 123.584 141.32 126.198 143.971L126.593 144.354L125.786 145.145Z" fill="#1E2022"/>
<path d="M111.216 277.9H102.795L99.5834 274.694L105.399 257.253L109.805 263.04L111.216 277.9Z" fill="#1E2022"/>
<path d="M111.222 277.9H102.801L99.5891 274.694L105.405 257.253L109.811 263.04L111.222 277.9Z" fill="#1E2022"/>
<path d="M112.669 274.458H98.4112V275.083H112.669V274.458Z" fill="#1E2022"/>
<path d="M112.669 271.643H98.4112V272.269H112.669V271.643Z" fill="#1E2022"/>
<path d="M112.669 268.827H98.4112V269.453H112.669V268.827Z" fill="#1E2022"/>
<path d="M112.669 266.012H98.4112V266.637H112.669V266.012Z" fill="#1E2022"/>
<path d="M112.669 263.195H98.4112V263.821H112.669V263.195Z" fill="#1E2022"/>
<path d="M112.669 260.381H98.4112V261.006H112.669V260.381Z" fill="#1E2022"/>
<path d="M112.669 257.564H98.4112V258.19H112.669V257.564Z" fill="#1E2022"/>
<path d="M121.288 277.9H129.711L132.922 274.694L127.105 257.253L122.699 263.04L121.288 277.9Z" fill="#1E2022"/>
<path d="M121.276 277.901H129.699L132.911 274.694L127.093 257.253L122.687 263.041L121.276 277.901Z" fill="#1E2022"/>
<path d="M119.838 275.086H134.096V274.461H119.838V275.086Z" fill="#1E2022"/>
<path d="M119.838 272.27H134.096V271.644H119.838V272.27Z" fill="#1E2022"/>
<path d="M119.838 269.455H134.096V268.829H119.838V269.455Z" fill="#1E2022"/>
<path d="M119.838 266.638H134.096V266.012H119.838V266.638Z" fill="#1E2022"/>
<path d="M119.838 263.823H134.096V263.197H119.838V263.823Z" fill="#1E2022"/>
<path d="M119.838 261.006H134.096V260.38H119.838V261.006Z" fill="#1E2022"/>
<path d="M119.838 258.191H134.096V257.565H119.838V258.191Z" fill="#1E2022"/>
<path d="M109.814 263.224L105.408 257.437C105.408 257.437 108.675 255.315 115.767 255.315C122.858 255.315 127.108 257.437 127.108 257.437L122.702 263.224H109.814Z" fill="#1E2022"/>
<path d="M109.796 263.224L105.39 257.437C105.39 257.437 108.657 255.315 115.749 255.315C122.84 255.315 127.09 257.437 127.09 257.437L122.684 263.224H109.796Z" fill="#1E2022"/>
<path d="M114.267 266.357L106.941 254.146L106.403 254.467L113.729 266.679L114.267 266.357Z" fill="#1E2022"/>
<path d="M115.183 265.818L110.356 252.424L109.766 252.636L114.593 266.029L115.183 265.818Z" fill="#1E2022"/>
<path d="M116.027 265.056L114.126 250.949L113.505 251.032L115.405 265.14L116.027 265.056Z" fill="#1E2022"/>
<path d="M118.756 266.678L126.082 254.467L125.544 254.145L118.218 266.357L118.756 266.678Z" fill="#1E2022"/>
<path d="M117.887 266.033L122.714 252.639L122.124 252.427L117.297 265.821L117.887 266.033Z" fill="#1E2022"/>
<path d="M117.073 265.137L118.974 251.03L118.352 250.946L116.452 265.054L117.073 265.137Z" fill="#1E2022"/>
<path fill-rule="evenodd" clip-rule="evenodd" d="M185.356 249.134H212.156L211.761 249.682C210.645 251.23 209.182 252.49 207.492 253.359C205.801 254.229 203.93 254.682 202.033 254.683H185.356V252.257H203.921V251.387H185.356V249.134ZM186.049 249.826V250.695H204.613V252.948H186.049V253.991H202.032C203.82 253.991 205.582 253.563 207.175 252.744C208.563 252.03 209.789 251.036 210.778 249.826H186.049Z" fill="#1E2022"/>
<path fill-rule="evenodd" clip-rule="evenodd" d="M212.943 249.134H219.087L218.968 249.571C218.268 252.134 216.754 254.396 214.658 256.009C212.561 257.622 209.998 258.497 207.361 258.5H185.356V255.379H202.032C204.197 255.379 206.326 254.82 208.218 253.756C210.11 252.692 211.701 251.158 212.841 249.299L212.943 249.134ZM213.329 249.826C212.135 251.711 210.497 253.269 208.558 254.359C206.563 255.481 204.317 256.07 202.033 256.071H186.049V257.808H207.361M213.329 249.826H218.171H213.329ZM218.171 249.826C217.464 252.064 216.091 254.033 214.235 255.461C212.259 256.981 209.844 257.805 207.361 257.808" fill="#1E2022"/>
<path fill-rule="evenodd" clip-rule="evenodd" d="M219.781 249.134H226.271L226.272 249.48C226.274 251.129 225.959 252.763 225.346 254.292L225.259 254.51H220.084V255.379H224.865L224.569 255.897C223.453 257.848 221.847 259.469 219.912 260.596C217.978 261.723 215.783 262.316 213.549 262.316H185.356V259.196H207.361C210.208 259.192 212.972 258.225 215.212 256.449C217.452 254.674 219.038 252.192 219.717 249.398L219.781 249.134ZM220.323 249.826C219.574 252.66 217.933 255.175 215.642 256.991C213.281 258.863 210.366 259.883 207.362 259.887H186.049V261.624H213.549C215.66 261.624 217.734 261.064 219.563 259.998C221.218 259.034 222.62 257.687 223.654 256.071H219.391V253.818H224.788C225.271 252.541 225.537 251.192 225.574 249.826H220.323Z" fill="#1E2022"/>
<path d="M211.48 271.338C210.396 272.841 208.975 274.065 207.333 274.909C205.691 275.754 203.875 276.194 202.032 276.195H185.703V274.46H204.267V272.899H185.703V271.338H211.48Z" fill="#1E2022"/>
<path d="M218.634 271.338C217.953 273.829 216.482 276.026 214.446 277.592C212.41 279.159 209.921 280.009 207.361 280.011H185.703V277.583H202.032C204.257 277.582 206.445 277.008 208.388 275.915C210.331 274.822 211.966 273.247 213.137 271.338H218.634Z" fill="#1E2022"/>
<path d="M219.737 276.021V277.583H224.268C223.182 279.482 221.62 281.058 219.738 282.155C217.856 283.251 215.722 283.828 213.549 283.828H185.703V281.399H207.361C210.287 281.395 213.126 280.402 215.427 278.578C217.728 276.754 219.357 274.205 220.054 271.338H225.925C225.927 272.943 225.621 274.533 225.025 276.021H219.737Z" fill="#1E2022"/>
<path d="M194.017 209.507L194.169 185.235C194.153 185.124 194.161 185.01 194.194 184.903C194.226 184.795 194.282 184.696 194.356 184.612C194.511 184.514 194.694 184.472 194.876 184.495L197.329 184.529C197.507 184.51 197.686 184.526 197.858 184.577C198.029 184.628 198.188 184.713 198.326 184.827C198.478 185.044 198.56 185.302 198.562 185.567C199.317 192.602 199.158 199.706 198.992 206.782L198.929 209.293C198.947 209.469 198.9 209.646 198.798 209.791C198.71 209.863 198.607 209.915 198.497 209.942C198.387 209.97 198.272 209.972 198.16 209.95L194.128 209.701" fill="#1E2022"/>
<path fill-rule="evenodd" clip-rule="evenodd" d="M194.863 185.187L194.713 209.044L198.237 209.262L198.299 206.766C198.465 199.683 198.623 192.623 197.873 185.641L197.869 185.606L197.869 185.571C197.869 185.478 197.847 185.387 197.807 185.305C197.761 185.277 197.711 185.255 197.66 185.24C197.577 185.215 197.49 185.208 197.405 185.217L197.362 185.222L194.863 185.187ZM194.356 184.612C194.282 184.696 194.226 184.795 194.194 184.903C194.161 185.01 194.153 185.124 194.169 185.235L194.017 209.507L194.14 209.508L194.128 209.701L198.16 209.95C198.272 209.972 198.387 209.97 198.497 209.942C198.607 209.915 198.71 209.863 198.798 209.791C198.9 209.646 198.947 209.469 198.929 209.293L198.992 206.782C199.158 199.706 199.317 192.602 198.562 185.567C198.56 185.302 198.478 185.044 198.326 184.827C198.188 184.713 198.029 184.628 197.858 184.577C197.686 184.526 197.507 184.51 197.329 184.529L194.876 184.495C194.694 184.472 194.511 184.514 194.356 184.612Z" fill="#1E2022"/>
<path d="M204.028 208.732C204.361 200.75 204.592 192.761 204.721 184.765C204.721 184.363 204.769 183.893 205.123 183.706C205.292 183.637 205.474 183.609 205.656 183.623C205.997 183.573 206.345 183.598 206.675 183.696C207.005 183.794 207.31 183.963 207.569 184.19C207.858 184.64 207.989 185.173 207.943 185.705L208.185 202.085C208.253 204.161 208.216 206.239 208.074 208.31C208.082 208.562 207.999 208.808 207.839 209.002C207.621 209.154 207.352 209.214 207.09 209.168L204.527 209.085" fill="#1E2022"/>
<path fill-rule="evenodd" clip-rule="evenodd" d="M205.414 184.776C205.286 192.657 205.06 200.532 204.735 208.4L207.162 208.478L207.21 208.487C207.258 208.495 207.308 208.492 207.355 208.478C207.374 208.432 207.383 208.383 207.382 208.333L207.381 208.298L207.383 208.263C207.523 206.215 207.56 204.16 207.493 202.108L207.492 202.101L207.249 185.68L207.252 185.645C207.283 185.297 207.207 184.95 207.036 184.647C206.87 184.517 206.681 184.419 206.478 184.359C206.244 184.29 205.998 184.272 205.757 184.308L205.679 184.319L205.6 184.313C205.554 184.309 205.508 184.312 205.463 184.322C205.46 184.33 205.457 184.339 205.454 184.35C205.427 184.443 205.414 184.58 205.414 184.765L205.414 184.776ZM207.569 184.19C207.858 184.64 207.989 185.173 207.943 185.705L208.185 202.085C208.253 204.161 208.216 206.239 208.074 208.31C208.082 208.562 207.999 208.808 207.839 209.002C207.621 209.154 207.352 209.214 207.09 209.168L204.527 209.085L204.538 208.754L204.028 208.732C204.361 200.75 204.592 192.761 204.721 184.765C204.721 184.363 204.769 183.893 205.123 183.706C205.292 183.637 205.474 183.609 205.656 183.623C205.997 183.573 206.345 183.598 206.675 183.696C207.005 183.794 207.31 183.963 207.569 184.19Z" fill="#1E2022"/>
<path d="M213.367 208.158C212.762 200.653 212.711 193.114 213.215 185.601C213.208 185.166 213.315 184.737 213.527 184.356C214.164 183.416 215.772 183.838 216.354 184.813C216.936 185.788 216.845 187.006 216.852 188.14C216.852 191.294 217.809 194.483 217.164 197.575C216.887 198.896 216.333 200.141 215.959 201.442C215.452 203.218 215.287 205.075 215.474 206.913C215.557 207.743 215.924 208.767 216.762 208.829C215.598 208.644 214.406 208.758 213.298 209.161C213.084 209.063 212.915 208.886 212.828 208.667C212.74 208.448 212.74 208.204 212.827 207.985" fill="#1E2022"/>
<path fill-rule="evenodd" clip-rule="evenodd" d="M213.908 185.619L213.906 185.648C213.405 193.126 213.456 200.632 214.058 208.103L213.367 208.158C212.762 200.653 212.711 193.114 213.215 185.601C213.208 185.166 213.315 184.737 213.527 184.356C214.164 183.416 215.772 183.838 216.354 184.813C216.862 185.665 216.857 186.703 216.853 187.708C216.852 187.853 216.851 187.997 216.852 188.14C216.852 189.322 216.987 190.508 217.12 191.693C217.344 193.67 217.567 195.641 217.164 197.575C216.997 198.372 216.729 199.142 216.46 199.913C216.284 200.419 216.107 200.926 215.959 201.442C215.452 203.218 215.287 205.075 215.474 206.913C215.511 207.289 215.607 207.704 215.778 208.052C215.962 208.425 216.233 208.721 216.613 208.807C216.207 208.751 215.798 208.732 215.392 208.748C214.679 208.777 213.973 208.915 213.298 209.161C213.084 209.063 212.915 208.886 212.828 208.667C212.769 208.52 212.749 208.361 212.769 208.206C212.779 208.131 212.798 208.057 212.827 207.985L213.367 208.158L213.28 208.165L213.471 208.241C213.453 208.285 213.45 208.333 213.461 208.378C213.975 208.223 214.503 208.122 215.035 208.078C214.895 207.709 214.818 207.322 214.784 206.982C214.589 205.057 214.762 203.113 215.292 201.252L215.293 201.251C215.447 200.715 215.632 200.185 215.809 199.677C215.854 199.547 215.899 199.418 215.943 199.291C216.161 198.657 216.357 198.05 216.486 197.434C216.785 195.996 216.718 194.513 216.56 192.95C216.523 192.573 216.479 192.19 216.435 191.801C216.3 190.607 216.16 189.366 216.16 188.142V188.144M216.613 208.807C216.661 208.818 216.711 208.825 216.762 208.829C216.713 208.821 216.663 208.814 216.613 208.807ZM216.16 188.142C216.159 187.983 216.159 187.829 216.16 187.678C216.162 187.258 216.164 186.868 216.128 186.479C216.082 185.965 215.976 185.531 215.758 185.167C215.58 184.869 215.213 184.621 214.826 184.545C214.459 184.472 214.232 184.57 214.116 184.723C213.974 184.99 213.903 185.288 213.908 185.59L213.908 185.619" fill="#1E2022"/>
</g>
<path opacity="0.2" d="M235 56.0001V51.2244H201.571V17.7951H196.795V56.0001H235Z" fill="url(#paint3_linear_4941_29360)"/>
<path opacity="0.3" d="M180.778 19V45.5833H163L180.778 63.3015L180.778 75.2819H207.66V93L225.438 75.2819H236V71.959H224.057L210.994 84.9778V71.959H184.112V61.9251L171.049 48.9062H184.112V19H180.778Z" fill="url(#paint4_linear_4941_29360)"/>
<defs>
<linearGradient id="paint0_linear_4941_29360" x1="121.5" y1="2" x2="121.5" y2="397" gradientUnits="userSpaceOnUse">
<stop stop-color="#27292C"/>
<stop offset="1" stop-color="#27292C" stop-opacity="0"/>
</linearGradient>
<linearGradient id="paint1_linear_4941_29360" x1="101.5" y1="18" x2="101.5" y2="416" gradientUnits="userSpaceOnUse">
<stop stop-color="#27292C"/>
<stop offset="1" stop-color="#27292C" stop-opacity="0"/>
</linearGradient>
<linearGradient id="paint2_linear_4941_29360" x1="101.5" y1="18" x2="101.5" y2="416" gradientUnits="userSpaceOnUse">
<stop stop-color="#27292C"/>
<stop offset="0.515625" stop-color="#27292C" stop-opacity="0.25"/>
<stop offset="1" stop-color="#27292C" stop-opacity="0"/>
</linearGradient>
<linearGradient id="paint3_linear_4941_29360" x1="215.898" y1="56.0001" x2="215.898" y2="17.7951" gradientUnits="userSpaceOnUse">
<stop stop-color="#27292C"/>
<stop offset="1" stop-color="#27292C" stop-opacity="0"/>
</linearGradient>
<linearGradient id="paint4_linear_4941_29360" x1="199.5" y1="19" x2="199.5" y2="93" gradientUnits="userSpaceOnUse">
<stop stop-color="#27292C"/>
<stop offset="1" stop-color="#27292C" stop-opacity="0"/>
</linearGradient>
</defs>
</svg>
