<svg width="58" height="48" viewBox="0 0 58 48" fill="none" xmlns="http://www.w3.org/2000/svg">
<g opacity="0.05">
<path d="M-9.0833 46.8846L-6.98967 44.9156C3.03657 52.2124 13.4933 52.8169 24.5883 46.6576L22.5409 44.4846C16.3156 48.0195 9.81721 49.0412 2.95104 46.9262C-2.49711 45.2514 -6.77915 42.0107 -9.98323 37.3106C-15.8732 28.6725 -15.1722 16.0897 -8.28749 8.53793L-6.29334 10.7223C-13.0855 19.5249 -11.4407 29.2842 -7.91272 34.73C-7.24183 34.046 -6.58792 33.3772 -5.95096 32.7241C-10.7166 23.2475 -7.01974 13.8172 -0.60238 9.2375C6.67105 4.05096 15.7603 5.38756 20.7851 9.58961L18.7447 11.7299C16.6141 10.2568 14.3492 9.27688 11.8044 9.04524C5.51889 8.47077 0.505849 10.7595 -2.80706 16.0988C-6.07125 21.3572 -5.90006 26.8194 -2.6728 32.1056C-2.16626 32.9302 -2.15002 33.3959 -2.8742 34.005C-4.04239 34.9895 -5.15745 36.0365 -6.24938 37.0165C-1.035 44.2438 11.9919 48.703 22.9459 40.5652L26.8555 44.7094C36.5416 37.5285 41.6982 20.2012 30.3256 6.36279L32.2596 4.32199C40.8192 12.9207 44.1204 30.7296 32.4701 43.9125C20.984 56.9263 2.18062 56.7225 -9.0833 46.8846Z" fill="#60686E"/>
<path d="M29.0721 1.09339L26.8442 3.05542C21.0608 -1.57748 14.2871 -3.52098 6.76386 -2.67317C2.47019 -2.18903 -2.55678 -0.243215 -4.49083 1.60069L-2.39484 3.40753C3.62002 -0.0393529 10.1323 -1.01458 16.9915 1.07022C22.3475 2.64218 26.9614 6.08828 29.9929 10.7808C36.195 20.1601 34.7631 31.995 28.2299 39.4678L26.2868 37.3018C31.8389 29.7085 32.5168 21.6936 27.9408 13.0718C27.2838 13.7829 26.7008 14.2949 26.2822 14.9249C26.1063 15.189 26.1525 15.7404 26.3029 16.0692C28.4058 20.6836 28.6997 25.3838 27.0363 30.188C23.1799 41.3256 9.1837 45.7315 -0.382263 38.81C-0.509396 38.7173 -0.613489 38.5991 -0.844881 38.4021L0.853098 36.607C3.36774 37.4362 5.58635 38.5296 7.9137 38.8655C14.2153 39.7804 19.3164 37.4223 22.7195 32.0736C26.0924 26.7621 25.9374 21.2257 22.6316 15.8585C22.1065 15.0061 22.1688 14.5589 22.8628 13.9706C24.0335 12.9884 25.1763 11.9576 26.2659 10.9917C20.6721 3.39131 7.6707 -0.516558 -2.88298 7.36634L-6.91991 3.31255C-15.5697 9.40019 -22.4313 27.0748 -10.3299 41.7054C-11.0239 42.2939 -11.7179 42.8939 -12.4119 43.496C-20.6268 35.3677 -24.1525 17.6328 -12.7034 4.348C-1.18733 -9.00405 17.8937 -8.71449 29.0721 1.09339Z" fill="#60686E"/>
<path d="M20.4057 16.766L9.99539 36.7941L-0.414917 16.766H20.4057ZM4.54956 19.7589L10.7449 31.6863L16.9912 19.7589H4.54956Z" fill="#60686E"/>
</g>
<path d="M25.1101 18.3438C26.8707 18.3438 28.5744 18.2896 30.2727 18.3645C31.3031 18.4094 32.1958 18.9464 32.9874 19.6953L31.7516 20.9627C30.0737 20.0202 28.853 19.8105 26.7621 20.1066V27.6928C28.0754 27.5776 29.423 27.944 30.718 27.3575C32.2894 26.6455 33.152 24.9379 32.811 23.1554C32.7325 22.7406 32.8282 22.4871 33.1036 22.2186C33.4263 21.8995 33.7145 21.5273 34.0317 21.1621C35.2665 23.1773 34.8072 26.2468 33.0993 27.9198C32.1496 28.8846 30.8899 29.4208 29.5812 29.4177C28.1044 29.4269 26.6266 29.4177 25.109 29.4177L25.1101 18.3438Z" fill="#60686E"/>
<path d="M39.0696 28.7068C39.1206 28.6302 39.1755 28.5567 39.2342 28.4867C39.5407 28.1641 39.8504 27.8449 40.0871 27.5984C40.8131 27.7666 41.4929 28.0281 42.1823 28.0592C42.9939 28.0939 43.7939 27.8434 44.4603 27.3458C45.1266 26.8482 45.623 26.1309 45.8735 25.3032C46.1364 24.4693 46.1417 23.567 45.8887 22.7298C45.6358 21.8925 45.1379 21.1646 44.4688 20.654C43.2008 19.655 41.3315 19.6446 40.0398 20.6309C38.6566 21.6863 38.0145 23.5564 38.6416 25.2536C38.9373 26.0533 38.719 26.4623 38.221 26.9254C38.0844 27.0522 38.0123 27.2584 37.9048 27.4359C36.2086 25.4138 36.5163 21.79 38.4318 19.8059C40.5399 17.6167 43.9719 17.6167 46.0607 19.8059C48.1698 22.0124 48.3032 25.6384 46.3586 27.9106C44.4141 30.1828 41.0949 30.5503 39.0696 28.7068Z" fill="#60686E"/>
<path d="M13.0789 20.4224C13.4209 20.7865 13.7673 21.0987 14.0351 21.4744C14.1244 21.5999 14.0652 21.9133 13.9888 22.1C13.0208 24.4413 14.1437 27.1168 16.3884 27.8081C18.0179 28.3093 19.6957 27.6467 20.6723 26.1143C21.5618 24.7202 21.4972 22.743 20.5196 21.381C19.4903 19.9477 17.7758 19.3439 16.2066 20.0226C15.543 20.3106 15.1784 20.1758 14.8084 19.6262C14.6681 19.4426 14.5165 19.2694 14.3546 19.1077C16.1625 17.3874 19.5279 17.7181 21.3897 19.7714C23.4053 21.9963 23.4397 25.6361 21.465 27.8369C19.3913 30.1517 16.0959 30.3487 13.906 28.2909C11.7495 26.2652 11.3516 22.7291 13.0789 20.4224Z" fill="#60686E"/>
<path d="M57.4081 28.3323C56.9842 27.8565 56.5958 27.4278 56.2182 26.9877C56.1427 26.9022 56.0972 26.7908 56.0911 26.6732C56.1227 25.8044 55.5825 25.461 54.9305 25.2905C54.0768 25.0601 53.2099 24.9183 52.3495 24.7144C52.0059 24.6184 51.6674 24.503 51.3352 24.3687C48.9798 23.5149 49.1529 20.2345 50.6792 19.0305C51.9149 18.0557 53.3164 17.9555 54.7576 18.1088C55.7451 18.2113 56.7191 18.4221 57.6369 19.1123L56.8632 20.7669C55.7882 20.0122 54.6254 19.7933 53.4121 19.9004C52.9656 19.9417 52.529 20.0649 52.1215 20.2645C51.6504 20.495 51.3965 20.9558 51.4084 21.532C51.4085 21.776 51.4809 22.0138 51.6152 22.2109C51.7496 22.408 51.9389 22.5544 52.1559 22.6289C52.6852 22.8268 53.2237 22.9952 53.7692 23.1336C54.6522 23.387 55.5794 23.5229 56.4147 23.8952C58.0284 24.6165 58.5016 26.6662 57.4081 28.3323Z" fill="#60686E"/>
<path d="M49.9972 26.9635C51.4223 27.9036 52.8904 28.33 54.4994 28.1018C54.5628 28.0948 54.6267 28.1013 54.6877 28.1212C54.7487 28.1409 54.8053 28.1736 54.8544 28.2171C55.2371 28.6157 55.5993 29.0374 55.9793 29.4615C54.3305 30.4523 50.8888 30.0214 49.2507 28.6146L49.9972 26.9635Z" fill="#60686E"/>
</svg>
