<svg width="87" height="47" viewBox="0 0 87 47" fill="none" xmlns="http://www.w3.org/2000/svg">
<path opacity="0.05" d="M49 47L21.7131 -1L-5.575 47H49ZM2.53735 21.5L15.075 -1H-10L2.53735 21.5ZM37.8559 40.6464H5.56989L21.7131 12.2487L37.8559 40.6464Z" fill="#60686E"/>
<path d="M71.9898 27C72.3936 27 72.7872 26.986 73.1712 26.958C73.5558 26.9305 73.9048 26.8942 74.2204 26.85C74.535 26.8054 74.8117 26.7638 75.0517 26.7249C75.29 26.6861 75.4729 26.6498 75.6 26.6165V21.1832C75.6 20.728 75.5373 20.306 75.4103 19.917C75.2843 19.5282 75.0822 19.1919 74.8066 18.9086C74.5282 18.6249 74.1656 18.4027 73.7195 18.2418C73.2723 18.0808 72.7268 18 72.0853 18C71.4551 18 70.9163 18.0393 70.4691 18.1167C70.0218 18.1946 69.6909 18.2777 69.4775 18.3664L69.6474 19.3166C69.8112 19.261 70.0698 19.1893 70.4216 19.1001C70.7752 19.0113 71.3099 18.9667 72.0282 18.9667C72.5314 18.9667 72.938 19.0359 73.2469 19.175C73.5558 19.3144 73.7952 19.4976 73.9657 19.7253C74.1346 19.9528 74.2453 20.2082 74.2955 20.4919C74.3385 20.7341 74.3593 20.9838 74.3661 21.2384H74.3706V21.3551C74.3706 21.3593 74.3718 21.3627 74.3718 21.3669V21.9003H74.3706V22.85H74.3718V25.8832C74.1193 25.9278 73.8138 25.9641 73.4547 25.9917C73.0961 26.0196 72.6765 26.0333 72.1977 26.0333C71.808 26.0333 71.4579 26.0026 71.149 25.9414C70.8412 25.8806 70.5758 25.7836 70.3556 25.6502C70.1353 25.5168 69.9648 25.3393 69.8456 25.1163C69.7254 24.8942 69.6661 24.6226 69.6661 24.3C69.6661 23.9331 69.7542 23.6392 69.9304 23.4167C70.1065 23.1946 70.3336 23.0193 70.6114 22.8915C70.8875 22.7639 71.1902 22.6808 71.5177 22.6414C71.8458 22.603 72.1609 22.5837 72.4631 22.5837C72.7002 22.5837 72.912 22.5905 73.1034 22.603V21.6804C73.0876 21.6792 73.0729 21.6766 73.0577 21.6751C72.8623 21.6581 72.6765 21.6498 72.5003 21.6498C71.9091 21.6498 71.3608 21.7001 70.8565 21.8001C70.3528 21.9003 69.9179 22.0585 69.5526 22.275C69.1878 22.4919 68.9037 22.7665 68.7021 23.1001C68.5011 23.4333 68.4 23.833 68.4 24.3C68.4 24.7891 68.4915 25.2029 68.6739 25.5414C68.8557 25.8806 69.1087 26.1583 69.43 26.3752C69.7513 26.5916 70.1286 26.7499 70.5634 26.85C70.9982 26.9497 71.4743 27 71.9898 27ZM40.7907 27C41.193 27 41.5872 26.986 41.9712 26.958C42.3558 26.9305 42.7053 26.8942 43.0204 26.85C43.335 26.8054 43.6122 26.7638 43.8517 26.7249C44.0911 26.6861 44.2741 26.6498 44.4 26.6165V21.1832C44.4 20.728 44.3373 20.306 44.2114 19.917C44.0855 19.5282 43.8833 19.1919 43.6066 18.9086C43.3293 18.6249 42.9668 18.4027 42.5195 18.2418C42.0723 18.0808 41.5279 18 40.8853 18C40.2548 18 39.7161 18.0393 39.2691 18.1167C38.8218 18.1946 38.4914 18.2777 38.2772 18.3664L38.4471 19.3166C38.6106 19.261 38.8691 19.1893 39.2222 19.1001C39.5746 19.0113 40.1099 18.9667 40.828 18.9667C41.3325 18.9667 41.7374 19.0359 42.0474 19.175C42.3558 19.3144 42.5946 19.4976 42.7657 19.7253C42.9352 19.9528 43.0447 20.2082 43.0967 20.4919C43.1396 20.7341 43.1593 20.9838 43.1661 21.2384H43.1718V25.8832C42.9193 25.9278 42.615 25.9641 42.2553 25.9917C41.8961 26.0196 41.4771 26.0333 40.9988 26.0333C40.6077 26.0333 40.2577 26.0026 39.9497 25.9414C39.6408 25.8806 39.376 25.7836 39.1556 25.6502C38.935 25.5168 38.7652 25.3393 38.6456 25.1163C38.526 24.8942 38.4664 24.6226 38.4664 24.3C38.4664 23.9331 38.5543 23.6392 38.731 23.4167C38.9067 23.1946 39.1336 23.0193 39.411 22.8915C39.6884 22.7639 39.9907 22.6808 40.3178 22.6414C40.6458 22.603 40.9604 22.5837 41.2625 22.5837C41.5002 22.5837 41.7109 22.5905 41.9034 22.603V21.6804C41.8876 21.6792 41.8741 21.6766 41.8577 21.6751C41.6623 21.6581 41.4771 21.6498 41.3009 21.6498C40.7087 21.6498 40.1604 21.7001 39.657 21.8001C39.1529 21.9003 38.7183 22.0585 38.3528 22.275C37.9871 22.4919 37.7035 22.7665 37.5021 23.1001C37.3006 23.4333 37.2 23.833 37.2 24.3C37.2 24.7891 37.2917 25.2029 37.4738 25.5414C37.6567 25.8806 37.9085 26.1583 38.2296 26.3752C38.551 26.5916 38.9295 26.7499 39.3633 26.85C39.7981 26.9497 40.2739 27 40.7907 27ZM25.7909 27C26.1935 27 26.5873 26.986 26.9718 26.958C27.3558 26.9305 27.7055 26.8942 28.0207 26.85C28.335 26.8054 28.613 26.7638 28.8521 26.7249C29.0912 26.6861 29.2741 26.6498 29.4 26.6165V21.1832C29.4 20.728 29.337 20.306 29.2116 19.917C29.0853 19.5282 28.8834 19.1919 28.6066 18.9086C28.3295 18.6249 27.967 18.4027 27.5197 18.2418C27.0722 18.0808 26.5276 18 25.8851 18C25.2549 18 24.7166 18.0393 24.2693 18.1167C23.8218 18.1946 23.4914 18.2777 23.2772 18.3664L23.4475 19.3166C23.611 19.261 23.8691 19.1893 24.2223 19.1001C24.5746 19.0113 25.1103 18.9667 25.8285 18.9667C26.3322 18.9667 26.7385 19.0359 27.0474 19.175C27.3558 19.3144 27.5957 19.4976 27.7655 19.7253C27.9357 19.9528 28.0456 20.2082 28.0963 20.4919C28.1391 20.7341 28.1596 20.9838 28.1667 21.2384H28.1715L28.1718 21.361L28.1719 21.3669V21.9003L28.1715 22.85L28.1719 25.8832C27.9197 25.9278 27.6147 25.9641 27.2551 25.9917C26.8965 26.0196 26.4774 26.0333 25.9987 26.0333C25.608 26.0333 25.2582 26.0026 24.9497 25.9414C24.6409 25.8806 24.3762 25.7836 24.1559 25.6502C23.9355 25.5168 23.7653 25.3393 23.646 25.1163C23.5261 24.8942 23.4665 24.6226 23.4665 24.3C23.4665 23.9331 23.5544 23.6392 23.7309 23.4167C23.9068 23.1946 24.1336 23.0193 24.4111 22.8915C24.6883 22.7639 24.9903 22.6808 25.3182 22.6414C25.6456 22.603 25.9611 22.5837 26.2632 22.5837C26.5001 22.5837 26.7113 22.5905 26.9035 22.603V21.6804C26.8879 21.6792 26.8741 21.6766 26.8584 21.6751C26.6629 21.6581 26.4774 21.6498 26.3008 21.6498C25.7085 21.6498 25.1606 21.7001 24.657 21.8001C24.153 21.9003 23.7182 22.0585 23.3528 22.275C22.987 22.4919 22.7036 22.7665 22.502 23.1001C22.3009 23.4333 22.2 23.833 22.2 24.3C22.2 24.7891 22.2915 25.2029 22.4738 25.5414C22.6567 25.8806 22.9084 26.1583 23.2295 26.3752C23.5513 26.5916 23.9295 26.7499 24.3642 26.85C24.7988 26.9497 25.2739 27 25.7909 27ZM79.235 30V26.3767C79.4507 26.523 79.7958 26.6774 80.2707 26.8406C80.7462 27.0029 81.3075 27.0847 81.9524 27.0847C82.6622 27.0847 83.2924 26.9723 83.8436 26.7476C84.3947 26.523 84.8601 26.2113 85.2407 25.812C85.6201 25.4132 85.9093 24.9361 86.1047 24.3794C86.3012 23.8231 86.4 23.2138 86.4 22.5509C86.4 21.843 86.282 21.2084 86.0482 20.6464C85.8133 20.0848 85.4841 19.6073 85.0605 19.2137C84.6359 18.8207 84.1282 18.5203 83.5398 18.3121C82.9508 18.1043 82.2952 18 81.5729 18C80.6982 18 79.9765 18.0508 79.4067 18.1521C78.8363 18.2529 78.3671 18.3599 78 18.4722V30H79.235ZM32.4716 27V19.2639C32.5762 19.2186 32.7948 19.1617 33.1273 19.0931C33.4597 19.0251 33.8998 18.9906 34.4482 18.9906C34.9697 18.9906 35.3901 19.0165 35.7102 19.0676C36.0295 19.1191 36.2413 19.1671 36.3458 19.2124L36.6 18.2563C36.4565 18.1994 36.1992 18.1428 35.8274 18.0855C35.4557 18.0286 35.0611 18 34.6434 18C33.8219 18 33.1237 18.0658 32.5495 18.1966C31.9757 18.3275 31.5256 18.456 31.2 18.581V27H32.4716ZM13.2355 30V26.3767C13.4504 26.523 13.7959 26.6774 14.2709 26.8406C14.7462 27.0029 15.3066 27.0847 15.9528 27.0847C16.6623 27.0847 17.2928 26.9723 17.8437 26.7476C18.3952 26.523 18.8608 26.2113 19.2406 25.812C19.6208 25.4132 19.9089 24.9361 20.1052 24.3794C20.3019 23.8231 20.4 23.2138 20.4 22.5509C20.4 21.843 20.2827 21.2084 20.0486 20.6464C19.8138 20.0848 19.4845 19.6073 19.0604 19.2137C18.6357 18.8207 18.1291 18.5203 17.54 18.3121C16.9503 18.1043 16.2952 18 15.573 18C14.6986 18 13.9764 18.0508 13.4062 18.1521C12.8361 18.2529 12.3675 18.3599 12 18.4722V30H13.2355ZM49.0831 27C50.2334 27 51.1409 26.7969 51.805 26.3905C52.468 25.9839 52.8 25.3859 52.8 24.5952C52.8 24.1779 52.7176 23.831 52.5538 23.5538C52.3883 23.2771 52.1743 23.0406 51.9089 22.8429C51.6429 22.6452 51.3357 22.476 50.9896 22.3355C50.6411 22.1954 50.2775 22.0576 49.8985 21.9229C49.532 21.7878 49.2068 21.6645 48.9216 21.5517C48.6376 21.4396 48.397 21.3183 48.201 21.1886C48.0045 21.0581 47.8566 20.9083 47.7561 20.7383C47.6538 20.5686 47.6036 20.3652 47.6036 20.1272C47.6036 20.114 47.6053 18.5487 47.6064 18.1119L47.607 18H46.3595C46.3573 18.044 46.3528 19.8073 46.3522 20.1647V20.2266C46.3522 20.599 46.4279 20.9153 46.5798 21.1747C46.7322 21.4346 46.9333 21.6576 47.1868 21.8438C47.4392 22.03 47.7301 22.1935 48.0582 22.3347C48.3874 22.476 48.7347 22.6142 49.1023 22.7497C49.5569 22.9189 49.9398 23.0656 50.2498 23.1899C50.5587 23.3139 50.8088 23.444 50.998 23.5795C51.1883 23.715 51.3233 23.8671 51.4069 24.0366C51.4882 24.2059 51.5294 24.4094 51.5294 24.6463C51.5294 25.1429 51.2985 25.4957 50.8371 25.7045C50.3763 25.9137 49.7912 26.0178 49.0831 26.0178C48.6906 26.0178 48.3462 25.9954 48.0497 25.9502C47.7521 25.9053 47.4968 25.8511 47.2811 25.7893C47.066 25.7275 46.8954 25.6703 46.7695 25.6201C46.643 25.569 46.5606 25.5325 46.5227 25.5099L46.2003 26.5087C46.3522 26.577 46.6554 26.6756 47.1112 26.805C47.5657 26.9352 48.2231 27 49.0831 27ZM58.0275 27C58.2234 26.6229 58.4307 26.199 58.6487 25.7276C58.8655 25.2566 59.0903 24.7531 59.3207 24.2174C59.5516 23.6811 59.7752 23.1176 59.9904 22.5262C60.2072 21.9355 60.4134 21.3307 60.6093 20.7121C60.8064 21.3293 61.0136 21.9325 61.2305 22.5225C61.4473 23.1121 61.6715 23.6748 61.9036 24.2103C62.1352 24.7461 62.3605 25.2492 62.579 25.7199C62.7976 26.1905 63.0071 26.6174 63.2064 27H64.3951C65.0677 25.777 65.686 24.484 66.2462 23.1202C66.8075 21.7568 67.3254 20.2499 67.8003 18.6H66.5359C66.3913 19.1752 66.2106 19.7961 65.9927 20.4631C65.7752 21.1301 65.5403 21.7914 65.2907 22.4459C65.0389 23.1007 64.7893 23.7228 64.538 24.3123C64.2872 24.9023 64.0495 25.4024 63.8253 25.8138C63.5605 25.2721 63.3001 24.6924 63.0443 24.0744C62.7863 23.4568 62.5434 22.8312 62.3147 22.1981C62.0855 21.5643 61.8754 20.9418 61.6856 20.3301C61.4953 19.7181 61.3423 19.1417 61.2249 18.6H60.1197C59.9633 19.141 59.7871 19.7173 59.5912 20.3298C59.3941 20.9422 59.1851 21.5623 58.9632 22.1907C58.7413 22.8194 58.5035 23.4429 58.2505 24.0611C57.9976 24.6799 57.7446 25.2584 57.4927 25.7972C57.2691 25.3858 57.028 24.8872 56.7716 24.3016C56.5135 23.7165 56.26 23.0962 56.0087 22.4411C55.7579 21.7862 55.523 21.126 55.3062 20.4597C55.0882 19.7944 54.9058 19.1744 54.7607 18.6H53.4003C53.8718 20.2469 54.3863 21.7531 54.9459 23.1179C55.5044 24.4825 56.1205 25.7766 56.7953 27H58.0275ZM81.8688 26.4C81.5701 26.4 81.2849 26.374 81.0127 26.3232C80.7394 26.2721 80.4858 26.2062 80.2521 26.1263C80.0177 26.0468 79.8133 25.9616 79.6382 25.8701C79.4632 25.7789 79.3169 25.6933 79.2 25.6134V19.4395C79.3948 19.3826 79.6845 19.3283 80.0668 19.2767C80.4503 19.2256 80.9534 19.2 81.5769 19.2C82.6679 19.2 83.5437 19.5109 84.2061 20.1323C84.8697 20.7537 85.2 21.6457 85.2 22.8087C85.2 23.2987 85.1418 23.7639 85.0249 24.2023C84.9081 24.6416 84.7194 25.023 84.4597 25.3482C84.2005 25.6731 83.8594 25.9297 83.4376 26.1178C83.0152 26.3057 82.4928 26.4 81.8688 26.4ZM15.8687 26.4C15.5696 26.4 15.2842 26.374 15.0116 26.3232C14.7387 26.2721 14.4856 26.2062 14.2517 26.1263C14.0179 26.0468 13.8132 25.9616 13.6381 25.8701C13.463 25.7789 13.3168 25.6933 13.2 25.6134V19.4395C13.3943 19.3826 13.6838 19.3283 14.0667 19.2767C14.4499 19.2256 14.9532 19.2 15.5761 19.2C16.6674 19.2 17.544 19.5109 18.2059 20.1323C18.8686 20.7537 19.2 21.6457 19.2 22.8087C19.2 23.2987 19.1416 23.7639 19.0245 24.2023C18.9079 24.6416 18.7193 25.023 18.4597 25.3482C18.1995 25.6731 17.8588 25.9297 17.4368 26.1178C17.0144 26.3057 16.4918 26.4 15.8687 26.4Z" fill="#60686E"/>
</svg>
