<svg width="256" height="418" viewBox="0 0 256 418" fill="none" xmlns="http://www.w3.org/2000/svg">
<path opacity="0.1" d="M267 2H27.918L2 26.4161V397H267V2Z" stroke="url(#paint0_linear_4945_30388)" stroke-width="4"/>
<path opacity="0.3" d="M288 18H37L21 32.5V416H288V18Z" stroke="url(#paint1_linear_4945_30388)" stroke-width="4"/>
<mask id="mask0_4945_30388" style="mask-type:alpha" maskUnits="userSpaceOnUse" x="21" y="18" width="267" height="398">
<path d="M288 18H37L21 32.5V416H288V18Z" fill="url(#paint2_linear_4945_30388)"/>
</mask>
<g mask="url(#mask0_4945_30388)">
<path d="M240.399 354.898L241.072 354.003L236.029 350.228C235.512 349.84 235.092 349.338 234.803 348.76C234.514 348.182 234.363 347.546 234.363 346.9C234.363 346.254 234.514 345.617 234.803 345.04C235.092 344.462 235.512 343.96 236.029 343.572C236.686 343.08 237.218 342.443 237.585 341.71C237.952 340.977 238.143 340.169 238.143 339.35C238.143 338.53 237.952 337.722 237.585 336.989C237.218 336.256 236.686 335.619 236.029 335.127C235.512 334.739 235.092 334.237 234.803 333.659C234.514 333.082 234.363 332.445 234.363 331.799C234.363 331.153 234.514 330.517 234.803 329.939C235.092 329.362 235.512 328.859 236.029 328.471L236.71 327.96C237.316 327.506 237.817 326.927 238.179 326.263C238.541 325.599 238.756 324.865 238.81 324.111C238.863 323.357 238.753 322.6 238.487 321.891C238.222 321.183 237.806 320.54 237.27 320.007L236.08 318.821L235.29 319.609L236.477 320.798C236.9 321.219 237.226 321.726 237.435 322.284C237.644 322.843 237.73 323.439 237.687 324.034C237.645 324.628 237.475 325.206 237.189 325.729C236.903 326.252 236.507 326.708 236.029 327.065L235.348 327.577C234.692 328.068 234.158 328.705 233.791 329.438C233.424 330.171 233.233 330.98 233.233 331.799C233.233 332.619 233.424 333.427 233.791 334.16C234.158 334.893 234.692 335.53 235.348 336.022C235.866 336.409 236.287 336.911 236.576 337.489C236.865 338.067 237.016 338.704 237.016 339.35C237.016 339.995 236.865 340.632 236.576 341.21C236.287 341.788 235.866 342.29 235.348 342.677C234.692 343.169 234.158 343.806 233.791 344.539C233.424 345.272 233.233 346.08 233.233 346.9C233.233 347.719 233.424 348.528 233.791 349.261C234.158 349.994 234.692 350.631 235.348 351.123L240.399 354.898Z" fill="#1E2022"/>
<path d="M230.987 354.898L236.029 351.123C236.686 350.631 237.218 349.993 237.585 349.26C237.952 348.527 238.143 347.719 238.143 346.9C238.143 346.081 237.952 345.273 237.585 344.54C237.218 343.807 236.686 343.169 236.029 342.677C235.512 342.29 235.092 341.787 234.803 341.21C234.514 340.632 234.363 339.995 234.363 339.35C234.363 338.704 234.514 338.067 234.803 337.49C235.092 336.912 235.512 336.409 236.029 336.022C236.686 335.53 237.218 334.892 237.585 334.159C237.952 333.427 238.143 332.618 238.143 331.799C238.143 330.98 237.952 330.172 237.585 329.439C237.218 328.706 236.686 328.068 236.029 327.577L235.348 327.065C234.871 326.708 234.475 326.252 234.189 325.729C233.903 325.206 233.733 324.628 233.69 324.034C233.648 323.439 233.734 322.843 233.943 322.284C234.151 321.726 234.478 321.219 234.9 320.798L236.088 319.609L235.298 318.821L234.108 320.007C233.571 320.541 233.156 321.183 232.891 321.892C232.625 322.6 232.515 323.357 232.568 324.111C232.621 324.865 232.836 325.599 233.199 326.263C233.561 326.927 234.062 327.506 234.668 327.96L235.348 328.471C235.866 328.859 236.287 329.361 236.576 329.939C236.865 330.516 237.016 331.153 237.016 331.799C237.016 332.445 236.865 333.082 236.576 333.66C236.287 334.237 235.866 334.74 235.348 335.127C234.692 335.618 234.158 336.256 233.791 336.989C233.424 337.722 233.233 338.53 233.233 339.35C233.233 340.169 233.424 340.977 233.791 341.71C234.158 342.443 234.692 343.081 235.348 343.572C235.866 343.96 236.287 344.462 236.576 345.04C236.865 345.617 237.016 346.254 237.016 346.9C237.016 347.546 236.865 348.183 236.576 348.76C236.287 349.338 235.866 349.84 235.348 350.228L230.306 354.003L230.987 354.898Z" fill="#1E2022"/>
<path d="M218.902 355.242L219.7 354.45L219.308 354.053C216.695 351.402 216.695 346.002 219.308 343.351L219.361 343.293C222.339 340.06 222.395 334.313 219.482 330.988C217.017 328.192 216.989 323.217 219.42 320.362L219.784 319.937L218.944 319.212L218.58 319.637C215.779 322.937 215.798 328.471 218.653 331.721C221.213 334.64 221.174 339.688 218.549 342.526L218.51 342.571C215.47 345.647 215.47 351.732 218.524 354.828L218.902 355.242Z" fill="#1E2022"/>
<path d="M219.412 355.242L219.807 354.842C222.86 351.746 222.86 345.67 219.807 342.571L219.779 342.543C217.162 339.702 217.115 334.655 219.675 331.735C222.53 328.486 222.563 322.951 219.748 319.652L219.384 319.227L218.543 319.951L218.885 320.376C221.317 323.228 221.289 328.192 218.826 331.002C215.91 334.322 215.966 340.068 218.947 343.307L218.986 343.351C221.614 346.016 221.614 351.416 219 354.068L218.605 354.451L219.412 355.242Z" fill="#1E2022"/>
<path d="M219.417 465.954C219.636 465.735 219.993 465.735 220.213 465.954L228.773 474.501L237.334 465.954C237.553 465.735 237.91 465.735 238.13 465.954L239.324 467.147C239.544 467.366 239.544 467.722 239.324 467.942L230.764 476.488L239.324 485.035C239.544 485.254 239.544 485.61 239.324 485.83L238.13 487.022C237.91 487.242 237.554 487.242 237.334 487.022L228.773 478.476L220.213 487.022C219.993 487.242 219.636 487.242 219.417 487.022L218.222 485.83C218.002 485.61 218.002 485.254 218.222 485.035L226.782 476.488L218.222 467.942C218.002 467.722 218.002 467.366 218.222 467.147L219.417 465.954Z" fill="#1E2022"/>
<path d="M228.618 388.943C227.877 388.944 227.143 389.092 226.46 389.38C225.777 389.667 225.158 390.088 224.641 390.618C224.132 391.125 223.729 391.728 223.454 392.391C223.179 393.055 223.038 393.766 223.039 394.484C223.075 397.371 225.447 402.395 228.618 403.81C231.785 402.395 234.157 397.371 234.197 394.484C234.197 393.766 234.055 393.054 233.78 392.391C233.504 391.728 233.1 391.125 232.591 390.618C232.074 390.088 231.456 389.667 230.773 389.379C230.09 389.091 229.356 388.943 228.614 388.943M228.614 386.778C230.667 386.784 232.635 387.6 234.087 389.05C235.538 390.499 236.357 392.463 236.362 394.512C236.308 398.342 233.217 404.784 228.614 406.112C224.008 404.784 220.917 398.342 220.866 394.512C220.871 392.463 221.689 390.498 223.141 389.049C224.593 387.599 226.561 386.783 228.614 386.778Z" fill="#1E2022"/>
<path d="M218.932 404.181H238.3V408.047H218.932V404.181Z" fill="#1E2022"/>
<path d="M226.68 408.047H230.552V427.381H226.68V408.047Z" fill="#1E2022"/>
<path d="M227.718 553.092V554.568C225.615 554.555 223.525 554.896 221.535 555.575L212.214 558.863L219.138 560.758C225.336 562.423 231.864 562.423 238.061 560.758L244.667 558.953L233.372 555.412C231.541 554.854 229.636 554.574 227.721 554.582V553.106M227.721 553.106C229.939 553.094 232.147 553.415 234.269 554.059L247.111 558.083C248.391 558.487 248.261 559.621 246.901 559.909L238.864 562.118C232.134 563.923 225.047 563.923 218.317 562.118L210.045 559.866C208.722 559.581 208.552 558.491 209.763 558.061L220.53 554.268C222.84 553.476 225.268 553.078 227.71 553.092L227.721 553.106Z" fill="#1E2022"/>
<path d="M227.718 530.992V532.465C225.615 532.454 223.525 532.795 221.535 533.476L212.214 536.767L219.138 538.662C225.336 540.325 231.864 540.325 238.061 538.662L244.667 536.857L233.372 533.32C231.541 532.761 229.636 532.48 227.721 532.487V530.992M227.721 530.992C229.94 530.985 232.147 531.311 234.269 531.96L247.111 535.984C248.391 536.385 248.261 537.518 246.901 537.81L238.871 540.016C232.142 541.825 225.054 541.825 218.325 540.016L210.045 537.76C208.722 537.478 208.552 536.385 209.763 535.955L220.53 532.165C222.843 531.375 225.273 530.979 227.718 530.992H227.721Z" fill="#1E2022"/>
<path d="M122.475 333.474H135.889C137.54 333.474 139.124 332.82 140.291 331.654C141.459 330.489 142.115 328.908 142.115 327.26C142.115 325.612 141.459 324.031 140.291 322.866C139.124 321.7 137.54 321.046 135.889 321.046H122.475V322.446H135.889C137.168 322.446 138.395 322.953 139.299 323.856C140.204 324.759 140.712 325.983 140.712 327.26C140.712 328.537 140.204 329.761 139.299 330.664C138.395 331.567 137.168 332.074 135.889 332.074H122.475V333.474Z" fill="#1E2022"/>
<path d="M120.897 324.022C121.348 324.022 121.788 323.888 122.163 323.638C122.538 323.388 122.83 323.033 123.003 322.617C123.175 322.201 123.22 321.743 123.132 321.302C123.045 320.86 122.827 320.455 122.509 320.137C122.19 319.818 121.784 319.602 121.341 319.514C120.899 319.426 120.441 319.471 120.024 319.643C119.608 319.816 119.252 320.107 119.001 320.482C118.751 320.856 118.617 321.296 118.617 321.746C118.618 322.349 118.858 322.927 119.286 323.354C119.713 323.781 120.292 324.021 120.897 324.022ZM120.897 320.871C121.07 320.871 121.24 320.922 121.384 321.018C121.528 321.114 121.64 321.251 121.707 321.411C121.773 321.571 121.79 321.747 121.757 321.917C121.723 322.086 121.639 322.242 121.517 322.365C121.394 322.487 121.238 322.571 121.068 322.604C120.898 322.638 120.721 322.621 120.561 322.554C120.401 322.488 120.264 322.376 120.168 322.232C120.071 322.088 120.02 321.919 120.02 321.746C120.02 321.514 120.112 321.291 120.277 321.127C120.441 320.963 120.664 320.871 120.897 320.871Z" fill="#1E2022"/>
<path d="M120.897 334.174C121.348 334.174 121.788 334.041 122.163 333.791C122.538 333.541 122.83 333.185 123.003 332.769C123.175 332.354 123.22 331.896 123.132 331.455C123.045 331.013 122.827 330.608 122.509 330.289C122.19 329.971 121.784 329.754 121.341 329.667C120.899 329.579 120.441 329.624 120.024 329.796C119.608 329.968 119.252 330.26 119.001 330.634C118.751 331.009 118.617 331.449 118.617 331.899C118.618 332.502 118.858 333.08 119.286 333.507C119.713 333.933 120.292 334.173 120.897 334.174ZM120.897 331.023C121.07 331.023 121.24 331.075 121.384 331.171C121.528 331.267 121.64 331.404 121.707 331.564C121.773 331.724 121.79 331.9 121.757 332.069C121.723 332.239 121.639 332.395 121.517 332.517C121.394 332.64 121.238 332.723 121.068 332.757C120.898 332.791 120.721 332.773 120.561 332.707C120.401 332.641 120.264 332.529 120.168 332.385C120.071 332.241 120.02 332.072 120.02 331.899C120.02 331.666 120.112 331.444 120.277 331.28C120.441 331.116 120.664 331.023 120.897 331.023Z" fill="#1E2022"/>
<path d="M153.418 323.57C153.405 323.52 153.404 323.468 153.414 323.417C153.424 323.367 153.445 323.319 153.475 323.278C153.506 323.237 153.545 323.202 153.59 323.178C153.635 323.153 153.685 323.139 153.737 323.136L158.734 321.735C158.97 321.671 159.179 321.531 159.327 321.336C159.475 321.142 159.555 320.905 159.555 320.66V319.936H151.78L149.129 316.785V319.365L147.273 316.785C146.116 319.365 149.36 322.652 149.36 322.652L150.086 324.021L150.51 327.172H152.544L153.418 323.57Z" fill="#1E2022"/>
<path fill-rule="evenodd" clip-rule="evenodd" d="M152.368 355.523V327.172H150.982V355.523H152.368Z" fill="#1E2022"/>
<path d="M120.574 349.95C120.413 350.098 120.297 350.29 120.24 350.502C120.184 350.714 120.189 350.938 120.255 351.147C120.296 351.337 120.389 351.512 120.523 351.652C120.657 351.792 120.828 351.892 121.016 351.942C121.016 351.942 122.128 351.767 122.608 352.246C123.089 352.726 122.815 353.944 124.976 354.102C127.136 354.259 129.535 352.026 133.694 352.828C137.853 353.629 142.111 354.424 142.977 353.783C143.843 353.143 144.896 352.425 144.896 352.425C144.896 352.425 142.178 354.424 138.176 352.348C134.175 350.272 129.696 350.828 128.654 351.147C127.613 351.466 128.255 352.267 125.456 351.469C122.657 350.671 121.696 350.59 122.177 349.95C122.482 349.509 122.718 349.025 122.878 348.514C122.878 348.514 121.826 350.111 121.598 349.95C121.246 349.641 121.019 349.216 120.956 348.752C120.974 348.353 120.721 349.631 120.574 349.95Z" fill="#1E2022"/>
<path d="M152.448 465.291C152.448 464.853 152.092 464.498 151.654 464.498H129.904C129.729 464.498 129.587 464.64 129.587 464.815V484.469C129.587 484.644 129.729 484.786 129.904 484.786H151.654C152.092 484.786 152.448 484.431 152.448 483.993V465.291Z" fill="#1E2022"/>
<path d="M152.448 469.095C152.448 468.657 152.092 468.302 151.654 468.302H127.364C127.189 468.302 127.047 468.444 127.047 468.619V489.541C127.047 489.716 127.189 489.858 127.364 489.858H151.654C152.092 489.858 152.448 489.503 152.448 489.065V469.095Z" fill="#1E2022"/>
<path d="M134.667 476.227C134.667 476.052 134.525 475.91 134.349 475.91H127.047V482.25H134.349C134.525 482.25 134.667 482.108 134.667 481.933V476.227Z" fill="#1E2022"/>
<path d="M135.211 397.026L122.788 417.696H147.634L135.211 397.026ZM135.211 393.695L150.667 419.411H119.755L135.211 393.695Z" fill="#1E2022"/>
<path d="M143.346 397.026L130.923 417.696H155.769L143.346 397.026ZM143.346 393.695L158.802 419.411H127.89L143.346 393.695Z" fill="#1E2022"/>
<path d="M122.518 567.653L128.297 561.883L134.077 567.653L139.857 561.883L145.636 567.653L151.416 561.883L157.196 567.653L158.105 566.746L151.416 560.072L145.636 565.842L139.857 560.072L134.077 565.842L128.297 560.072L121.609 566.746L122.518 567.653Z" fill="#1E2022"/>
<path d="M122.518 557.556L128.297 551.786L134.077 557.556L139.857 551.786L145.636 557.556L151.416 551.786L157.196 557.556L158.105 556.649L151.416 549.975L145.636 555.745L139.857 549.975L134.077 555.745L128.297 549.975L121.609 556.649L122.518 557.556Z" fill="#1E2022"/>
<path d="M145.986 530.259C144.616 530.259 143.276 530.665 142.137 531.425C140.997 532.185 140.109 533.265 139.585 534.529C139.06 535.793 138.923 537.184 139.19 538.526C139.458 539.867 140.118 541.1 141.087 542.067C142.056 543.035 143.291 543.694 144.635 543.96C145.979 544.227 147.372 544.09 148.638 543.567C149.904 543.043 150.987 542.157 151.748 541.019C152.509 539.882 152.916 538.544 152.916 537.176C152.914 535.342 152.183 533.584 150.884 532.287C149.585 530.99 147.824 530.261 145.986 530.259ZM145.986 528.336C147.738 528.336 149.45 528.854 150.906 529.826C152.363 530.797 153.498 532.178 154.168 533.793C154.838 535.409 155.014 537.186 154.672 538.901C154.33 540.616 153.487 542.191 152.248 543.427C151.01 544.664 149.432 545.506 147.714 545.847C145.996 546.188 144.216 546.013 142.598 545.344C140.979 544.675 139.596 543.541 138.623 542.088C137.65 540.634 137.131 538.925 137.131 537.176C137.131 534.832 138.064 532.583 139.724 530.925C141.385 529.267 143.638 528.336 145.986 528.336Z" fill="#1E2022"/>
<path d="M134.8 546.017C129.909 546.017 125.944 542.059 125.944 537.176C125.944 532.294 129.909 528.336 134.8 528.336C139.69 528.336 143.655 532.294 143.655 537.176C143.655 542.059 139.69 546.017 134.8 546.017Z" fill="#1E2022"/>
<path fill-rule="evenodd" clip-rule="evenodd" d="M62.5813 458.745L70.0437 475.892L71.3146 475.341L63.8522 458.193L62.5813 458.745Z" fill="#1E2022"/>
<path d="M64.0881 458.689C64.0881 458.689 62.3238 454.21 60.2123 457.859C58.1009 461.508 61.8465 471.368 61.9369 472.833C62.0273 474.299 63.8929 471.985 63.8929 471.985L65.2668 472.621L66.0477 473.783L67.1613 471.935C67.1613 471.935 61.015 461.385 64.0881 458.689Z" fill="#1E2022"/>
<path fill-rule="evenodd" clip-rule="evenodd" d="M48.1185 458.833L44.8646 462.081L41.6107 458.833L38.3568 462.081L35.1028 458.833L31.359 462.571L32.3388 463.549L35.1028 460.79L38.3568 464.038L41.6107 460.79L44.8646 464.038L48.1185 460.79L51.3725 464.038L55.1163 460.301L54.1365 459.322L51.3725 462.081L48.1185 458.833Z" fill="#1E2022"/>
<path fill-rule="evenodd" clip-rule="evenodd" d="M48.1186 465.33L44.8646 468.578L41.6107 465.33L38.3568 468.578L35.1029 465.33L31.359 469.067L32.3388 470.045L35.1029 467.286L38.3568 470.534L41.6107 467.286L44.8646 470.534L48.1186 467.286L51.3725 470.534L55.1163 466.797L54.1366 465.819L51.3725 468.578L48.1186 465.33Z" fill="#1E2022"/>
<path fill-rule="evenodd" clip-rule="evenodd" d="M48.1186 471.827L44.8646 475.075L41.6107 471.827L38.3568 475.075L35.1029 471.827L31.359 475.564L32.3388 476.542L35.1029 473.783L38.3568 477.031L41.6107 473.783L44.8646 477.031L48.1186 473.783L51.3725 477.031L55.1163 473.294L54.1366 472.316L51.3725 475.075L48.1186 471.827Z" fill="#1E2022"/>
<path d="M50.6059 486.971C48.4949 486.96 46.3996 487.334 44.4235 488.075L35.0992 491.684L42.0228 493.76C48.1983 495.584 54.7707 495.584 60.9462 493.76L67.5517 491.775L56.2533 487.87C54.4325 487.265 52.5249 486.961 50.6059 486.971ZM50.6059 485.347C52.8353 485.339 55.0508 485.697 57.1644 486.404L69.9921 490.811C71.272 491.251 71.1418 492.493 69.7824 492.811L61.7452 495.229C55.0396 497.207 47.9041 497.207 41.1985 495.229L32.9479 492.746C31.6247 492.439 31.4548 491.241 32.6659 490.775L43.4256 486.621C45.7204 485.758 48.154 485.323 50.6059 485.336V485.347Z" fill="#1E2022"/>
<path d="M51.3724 493.467C50.0246 493.467 48.932 492.377 48.932 491.031C48.932 489.686 50.0246 488.595 51.3724 488.595C52.7202 488.595 53.8129 489.686 53.8129 491.031C53.8129 492.377 52.7202 493.467 51.3724 493.467Z" fill="#1E2022"/>
<path d="M44.5908 418.17H36.1694L32.9577 414.964L38.7735 397.523L43.1796 403.31L44.5908 418.17Z" fill="#1E2022"/>
<path d="M44.5965 418.171H36.1751L32.9634 414.964L38.7792 397.523L43.1852 403.31L44.5965 418.171Z" fill="#1E2022"/>
<path d="M46.0435 414.728H31.7855V415.354H46.0435V414.728Z" fill="#1E2022"/>
<path d="M46.0435 411.913H31.7855V412.539H46.0435V411.913Z" fill="#1E2022"/>
<path d="M46.0435 409.098H31.7855V409.723H46.0435V409.098Z" fill="#1E2022"/>
<path d="M46.0435 406.282H31.7855V406.908H46.0435V406.282Z" fill="#1E2022"/>
<path d="M46.0435 403.465H31.7855V404.091H46.0435V403.465Z" fill="#1E2022"/>
<path d="M46.0435 400.651H31.7855V401.277H46.0435V400.651Z" fill="#1E2022"/>
<path d="M46.0435 397.834H31.7855V398.46H46.0435V397.834Z" fill="#1E2022"/>
<path d="M54.662 418.17H63.0851L66.2967 414.964L60.4794 397.523L56.0733 403.31L54.662 418.17Z" fill="#1E2022"/>
<path d="M54.6502 418.171H63.0733L66.2849 414.965L60.4676 397.524L56.0615 403.311L54.6502 418.171Z" fill="#1E2022"/>
<path d="M53.2124 415.356H67.4704V414.731H53.2124V415.356Z" fill="#1E2022"/>
<path d="M53.2124 412.54H67.4704V411.914H53.2124V412.54Z" fill="#1E2022"/>
<path d="M53.2124 409.725H67.4704V409.099H53.2124V409.725Z" fill="#1E2022"/>
<path d="M53.2124 406.908H67.4704V406.282H53.2124V406.908Z" fill="#1E2022"/>
<path d="M53.2124 404.093H67.4704V403.467H53.2124V404.093Z" fill="#1E2022"/>
<path d="M53.2124 401.276H67.4704V400.651H53.2124V401.276Z" fill="#1E2022"/>
<path d="M53.2124 398.461H67.4704V397.835H53.2124V398.461Z" fill="#1E2022"/>
<path d="M43.1882 403.495L38.7821 397.708C38.7821 397.708 42.0496 395.585 49.1411 395.585C56.2326 395.585 60.4824 397.708 60.4824 397.708L56.0763 403.495H43.1882Z" fill="#1E2022"/>
<path d="M43.1702 403.495L38.7641 397.708C38.7641 397.708 42.0315 395.585 49.123 395.585C56.2146 395.585 60.4644 397.708 60.4644 397.708L56.0583 403.495H43.1702Z" fill="#1E2022"/>
<path d="M47.6412 406.627L40.3149 394.416L39.7773 394.737L47.1036 406.949L47.6412 406.627Z" fill="#1E2022"/>
<path d="M48.5575 406.088L43.7301 392.694L43.1404 392.906L47.9678 406.3L48.5575 406.088Z" fill="#1E2022"/>
<path d="M49.4009 405.327L47.5004 391.219L46.8793 391.302L48.7798 405.41L49.4009 405.327Z" fill="#1E2022"/>
<path d="M52.13 406.949L59.4563 394.737L58.9187 394.416L51.5923 406.627L52.13 406.949Z" fill="#1E2022"/>
<path d="M51.2611 406.303L56.0885 392.909L55.4988 392.697L50.6714 406.091L51.2611 406.303Z" fill="#1E2022"/>
<path d="M50.4473 405.408L52.3478 391.3L51.7267 391.217L49.8262 405.324L50.4473 405.408Z" fill="#1E2022"/>
<path fill-rule="evenodd" clip-rule="evenodd" d="M67.4165 354.093V318.431L33.2838 354.093H67.4165ZM36.6609 352.652L65.9717 322.027V352.652H36.6609Z" fill="#1E2022"/>
<path fill-rule="evenodd" clip-rule="evenodd" d="M62.5404 318.431H33.2838V347.615L62.5404 318.431ZM34.7285 344.135V319.872H59.0513L34.7285 344.135Z" fill="#1E2022"/>
<path d="M51.2463 548.735V560.444H49.4539V548.735L40.42 557.755L39.1525 556.489L48.1866 547.47H36.4589V545.68H48.1864L39.1525 536.661L40.4199 535.396L49.4539 544.415V532.707H51.2463V544.415L60.2803 535.396L61.5478 536.661L52.5139 545.68H64.2414V547.47H52.5137L61.5478 556.489L60.2803 557.754L51.2463 548.735Z" fill="#1E2022"/>
<path d="M51.2463 128.542V140.25H49.4539V128.542L40.42 137.561L39.1525 136.296L48.1866 127.277H36.4589V125.487H48.1864L39.1525 116.468L40.4199 115.203L49.4539 124.222V112.513H51.2463V124.222L60.2803 115.203L61.5478 116.468L52.5139 125.487H64.2414V127.277H52.5137L61.5478 136.296L60.2803 137.561L51.2463 128.542Z" fill="#1E2022"/>
<path d="M243.121 61.7477H245.921V72.9299H243.121V61.7477Z" fill="#1E2022"/>
<path d="M237.52 61.7478H240.32V72.93H237.52V61.7478Z" fill="#1E2022"/>
<path d="M231.919 61.7478H234.72V72.93H231.919V61.7478Z" fill="#1E2022"/>
<path d="M233.164 40.6258V52.1185H242.483L235.575 46.3721L242.483 40.6258H233.164ZM231.919 39.3833H245.921L237.52 46.3721L245.921 53.361H231.919V39.3833Z" fill="#1E2022"/>
<path d="M226.318 53.9823V52.7399C226.185 52.7399 212.939 52.6436 212.939 44.9745C212.918 44.4184 213.036 43.8658 213.282 43.3665C213.528 42.8671 213.894 42.4366 214.348 42.1137C215.332 41.4528 216.498 41.116 217.684 41.1508C220.21 41.1508 222.896 42.4896 222.896 44.9745C222.896 47.068 220.938 47.1488 220.718 47.1488V48.3913C221.9 48.3913 224.14 47.6768 224.14 44.9745C224.14 41.6851 220.814 39.9084 217.684 39.9084C216.235 39.8746 214.811 40.295 213.614 41.1104C213.002 41.5485 212.506 42.1298 212.171 42.8036C211.837 43.4773 211.673 44.2228 211.694 44.9745C211.694 48.7019 214.267 51.4508 219.14 52.9076C221.476 53.5759 223.889 53.9372 226.318 53.9823Z" fill="#1E2022"/>
<path d="M226.318 73.551V72.3085C226.185 72.3085 212.939 72.2122 212.939 64.5431C212.918 63.9871 213.036 63.4345 213.282 62.9351C213.528 62.4358 213.894 62.0053 214.348 61.6824C215.332 61.0214 216.498 60.6847 217.684 60.7195C220.21 60.7195 222.896 62.0582 222.896 64.5431C222.896 66.6367 220.938 66.7175 220.718 66.7175V67.9599C221.9 67.9599 224.14 67.2455 224.14 64.5431C224.14 61.2537 220.814 59.477 217.684 59.477C216.235 59.4433 214.811 59.8637 213.614 60.6791C213.002 61.1171 212.506 61.6985 212.171 62.3722C211.837 63.0459 211.673 63.7914 211.694 64.5431C211.694 68.2705 214.267 71.0195 219.14 72.4763C221.476 73.1446 223.889 73.5058 226.318 73.551Z" fill="#1E2022"/>
<path d="M242.185 197.523V209.48L222.779 212.71L222.342 212.781L219.191 211.207H212.869L212.249 213.065H245.57V197.523H242.185ZM240.832 196.172H246.924V214.417H210.371L211.894 209.855H219.509L222.555 211.376L240.832 208.335V196.172Z" fill="#1E2022"/>
<path d="M214.94 191.611H241.593C244.907 191.611 247.601 189.222 247.601 186.29C247.601 183.357 244.893 180.968 241.593 180.968H214.94V182.168H241.593C244.159 182.168 246.247 184.016 246.247 186.29C246.247 188.563 244.159 190.412 241.593 190.412H214.94V191.611Z" fill="#1E2022"/>
<path d="M214.094 183.84C214.529 183.84 214.954 183.711 215.316 183.47C215.678 183.229 215.96 182.886 216.127 182.484C216.293 182.083 216.337 181.641 216.252 181.215C216.167 180.789 215.957 180.398 215.65 180.091C215.342 179.784 214.95 179.575 214.523 179.49C214.097 179.405 213.654 179.449 213.252 179.615C212.85 179.781 212.507 180.063 212.265 180.424C212.023 180.785 211.894 181.21 211.894 181.644C211.895 182.226 212.127 182.784 212.539 183.196C212.952 183.607 213.511 183.839 214.094 183.84ZM214.094 180.799C214.261 180.799 214.425 180.849 214.564 180.942C214.703 181.034 214.812 181.166 214.876 181.321C214.94 181.475 214.957 181.645 214.924 181.809C214.891 181.973 214.811 182.123 214.692 182.241C214.574 182.359 214.423 182.44 214.259 182.472C214.095 182.505 213.925 182.488 213.77 182.424C213.616 182.36 213.484 182.252 213.391 182.113C213.298 181.974 213.248 181.811 213.248 181.644C213.248 181.42 213.337 181.205 213.496 181.047C213.654 180.888 213.87 180.799 214.094 180.799Z" fill="#1E2022"/>
<path d="M216.463 206.815C214.781 206.815 213.417 205.453 213.417 203.774C213.417 202.095 214.781 200.733 216.463 200.733C218.146 200.733 219.509 202.095 219.509 203.774C219.509 205.453 218.146 206.815 216.463 206.815Z" fill="#1E2022"/>
<path d="M228.403 109.416V111.236C226.596 111.231 224.815 111.658 223.207 112.48L215.372 116.539L221.189 118.884C226.291 120.937 231.992 120.937 237.095 118.884L242.647 116.645L233.153 112.274C231.662 111.596 230.042 111.246 228.403 111.248V109.428M228.403 109.428C230.302 109.422 232.18 109.825 233.91 110.608L244.704 115.58C245.78 116.075 245.67 117.476 244.528 117.834L237.772 120.565C232.232 122.794 226.042 122.794 220.502 120.565L213.549 117.774C212.436 117.425 212.294 116.075 213.312 115.547L222.362 110.863C224.229 109.906 226.298 109.41 228.397 109.416L228.403 109.428Z" fill="#1E2022"/>
<path d="M212.637 146.742L218.107 141.282L223.577 146.742L229.047 141.282L234.518 146.742L239.988 141.282L245.458 146.742L246.318 145.884L239.988 139.564L234.518 145.025L229.047 139.564L223.577 145.025L218.107 139.564L211.777 145.884L212.637 146.742Z" fill="#1E2022"/>
<path d="M212.637 137.186L218.107 131.726L223.577 137.186L229.047 131.726L234.518 137.186L239.988 131.726L245.458 137.186L246.318 136.328L239.988 130.008L234.518 135.469L229.047 130.008L223.577 135.469L218.107 130.008L211.777 136.328L212.637 137.186Z" fill="#1E2022"/>
<path d="M224.206 277.557C221.94 278.965 219.871 279.969 218.618 280.054C215.095 280.353 211.279 280.313 211.279 280.313L211.715 277.092C211.715 277.092 214.743 277.217 216.563 273.806C218.383 270.396 223.252 256.558 230.586 254.431L231.403 254.196C231.804 252.294 234.368 242.341 242.48 250.701L246.614 252.164L241.756 253.737C241.756 253.737 237.093 265.272 234.657 268.778C233.77 269.94 232.762 271.002 231.652 271.944C230.845 274.91 230.861 280.66 232.065 282.682C233.924 285.803 239.334 284.892 239.334 284.892C239.334 284.892 241.09 285.676 237.592 285.666C234.823 285.666 232.699 285.901 231.041 285.921L231.173 286.011L222.332 286.141C226.354 283.709 225.145 283.599 225.375 280.977C225.497 279.754 224.881 278.516 224.206 277.557ZM227.22 284.433L229.03 284.598L229.519 284.932C229.753 284.73 230.001 284.546 230.263 284.383C230.263 284.383 231.104 276.538 228.658 276.628C228.169 276.628 227.64 276.678 227.087 276.713C226.613 279.579 227.22 284.433 227.22 284.433Z" fill="#1E2022"/>
<path d="M146.901 74.4222L145.116 73.8891L146.979 67.6902H146.281V64.9007H147.833L148.5 62.6722C148.556 62.4893 148.603 62.3002 148.643 62.1112H146.281V59.3216H148.733C148.636 58.4783 148.371 57.6628 147.954 56.9227L147.541 56.2346C147.016 55.3268 146.672 54.3257 146.529 53.287L145.824 48.5789C145.514 46.4403 145.88 44.218 146.833 42.6342L147.29 41.8748C147.78 40.9769 148.58 40.2865 149.541 39.9314V39.7796H151.404V39.9314C152.364 40.2865 153.164 40.9769 153.655 41.8748L154.111 42.6342C155.064 44.218 155.443 46.4403 155.12 48.5789L154.415 53.287C154.272 54.3257 153.929 55.3268 153.403 56.2346L152.99 56.9227C152.575 57.658 152.31 58.4681 152.211 59.3062H154.664V62.0957H152.31C152.35 62.2847 152.397 62.4738 152.453 62.6567L153.111 64.8976H154.664V67.6871H153.959L155.822 73.886L154.036 74.4191L152.012 67.684H148.926L146.901 74.4222ZM153.279 48.3155C153.533 46.617 153.242 44.81 152.515 43.6012L152.059 42.8418C151.602 42.0856 151.025 41.6516 150.472 41.6516C149.919 41.6516 149.342 42.0856 148.885 42.8418L148.429 43.595C147.703 44.8038 147.411 46.6108 147.665 48.3093L148.373 53.0174C148.479 53.8147 148.739 54.584 149.137 55.2831L149.553 55.9928C150.001 56.761 150.316 57.5994 150.484 58.4724C150.653 57.5994 150.968 56.761 151.416 55.9928L151.832 55.3017C152.23 54.6026 152.49 53.8333 152.596 53.0359L153.279 48.3155ZM151.177 64.8976L150.668 63.2022C150.589 62.9459 150.524 62.6825 150.472 62.4118C150.42 62.6825 150.355 62.9459 150.276 63.2022L149.767 64.8976H151.177Z" fill="#1E2022"/>
<path d="M122.994 74.6607H124.857V46.0744C124.857 44.6564 125.421 43.2965 126.426 42.2938C127.43 41.2911 128.793 40.7278 130.213 40.7278C131.633 40.7278 132.996 41.2911 134 42.2938C135.005 43.2965 135.569 44.6564 135.569 46.0744V61.3206C135.11 61.4696 134.694 61.7255 134.355 62.0671C134.015 62.4086 133.762 62.8261 133.616 63.2848C133.471 63.7435 133.437 64.2303 133.517 64.7048C133.597 65.1792 133.79 65.6278 134.079 66.0132L135.755 68.2448L137.245 67.129L135.569 64.8974C135.439 64.7247 135.36 64.5194 135.341 64.3044C135.321 64.0894 135.362 63.8733 135.459 63.6802C135.556 63.4871 135.704 63.3248 135.888 63.2113C136.072 63.0978 136.284 63.0377 136.5 63.0377H137.432V46.0744C137.432 44.1632 136.671 42.3302 135.317 40.9788C133.964 39.6274 132.128 38.8681 130.213 38.8681C128.298 38.8681 126.462 39.6274 125.109 40.9788C123.755 42.3302 122.994 44.1632 122.994 46.0744V74.6607Z" fill="#1E2022"/>
<path d="M135.657 184.441L134.896 183.596C134.815 183.69 126.667 192.596 121.977 187.391C121.625 187.028 121.359 186.573 121.204 186.068C121.049 185.562 121.01 185.022 121.09 184.495C121.285 183.381 121.791 182.363 122.535 181.584C124.078 179.871 126.537 178.96 128.056 180.646C129.336 182.067 128.189 183.448 128.056 183.6L128.817 184.441C129.54 183.639 130.469 181.638 128.817 179.801C126.804 177.571 123.689 178.633 121.777 180.739C120.87 181.698 120.257 182.947 120.024 184.313C119.918 185.025 119.971 185.754 120.178 186.438C120.386 187.122 120.741 187.74 121.213 188.236C123.496 190.77 126.748 190.887 130.613 188.575C132.449 187.446 134.144 186.056 135.657 184.441Z" fill="#1E2022"/>
<path d="M134.78 204.265L134.019 203.42C133.938 203.51 125.79 212.42 121.1 207.215C120.748 206.852 120.482 206.397 120.327 205.892C120.172 205.386 120.133 204.846 120.213 204.319C120.41 203.204 120.917 202.184 121.662 201.404C123.205 199.695 125.664 198.784 127.183 200.47C128.459 201.891 127.312 203.268 127.183 203.424L127.944 204.265C128.666 203.463 129.596 201.458 127.944 199.625C125.934 197.391 122.816 198.457 120.904 200.563C119.997 201.521 119.384 202.771 119.15 204.136C119.045 204.849 119.098 205.579 119.306 206.263C119.514 206.947 119.87 207.564 120.343 208.06C122.623 210.59 125.874 210.707 129.74 208.399C131.574 207.269 133.268 205.879 134.78 204.265Z" fill="#1E2022"/>
<path d="M153.412 185.34L154.815 185.169C154.815 185.169 156.534 177.03 151.539 177.384C146.544 177.738 147.481 179.634 146.856 181.02C146.232 182.405 147.326 182.577 147.326 182.577C147.164 182.666 147.038 182.821 146.977 183.011C146.915 183.2 146.923 183.409 146.997 183.593C147.239 184.332 146.513 185.15 147.421 184.935C148.329 184.721 150.206 183.997 150.325 184.733C150.445 185.469 147.905 185.34 146.877 186.01C145.85 186.679 145.124 187.15 144.818 188.898C144.513 190.646 144.275 192.592 143.791 192.46C143.307 192.327 141.49 189.77 141.732 188.898C141.974 188.026 142.156 187.018 141.613 186.563C141.069 186.107 140.704 186.562 140.522 185.959C140.339 185.356 140.764 184.682 139.918 184.616C139.073 184.55 138.586 184.749 138.645 185.006C138.705 185.262 138.947 186.687 138.947 186.687L141.855 193.199C141.855 193.199 138.887 189.91 138.887 189.307C138.887 188.703 138.221 187.36 138.221 187.36C138.221 187.36 138.161 186.889 137.558 186.691C137.16 186.552 136.775 186.373 136.407 186.154L135.864 185.765L135.681 186.154L136.106 188.166L137.677 190.112C137.677 190.112 143.184 200.116 143.426 200.233C143.668 200.35 146.755 192.059 146.755 192.059C146.755 192.059 148.158 197.298 148.449 198.641C148.706 199.921 148.868 201.223 148.933 202.533C148.996 203.471 148.933 203.269 148.814 203.74C148.733 204.047 148.615 204.34 148.463 204.612C148.463 204.612 147.859 204.884 147.677 204.748C147.495 204.612 140.294 200.112 139.75 200.112C139.206 200.112 137.873 201.12 137.814 201.459C137.754 201.798 137.267 201.591 137.751 202.802C137.98 203.401 138.244 203.983 138.54 204.546L141.746 209.181C141.746 209.181 136.057 212 135.815 212.739C135.573 213.479 135.815 216.098 138.235 215.896C140.655 215.694 148.586 214.152 150.28 214.421C151.466 214.543 152.662 214.383 153.787 213.95C153.787 213.95 156.691 213.95 157.779 214.218C158.866 214.487 159.778 213.829 159.413 213.545L154.32 211.809C154.32 211.809 155.895 211.003 154.745 205.764C153.594 200.525 153.342 193.81 153.714 192.199C154.085 190.587 154.198 190.385 154.138 189.042C154.078 187.699 153.229 186.22 153.412 185.34Z" fill="#1E2022"/>
<path d="M151.201 144.801L151.874 143.906L146.831 140.131C146.314 139.743 145.894 139.241 145.605 138.663C145.316 138.086 145.166 137.449 145.166 136.803C145.166 136.157 145.316 135.521 145.605 134.943C145.894 134.366 146.314 133.863 146.831 133.475C147.488 132.984 148.021 132.346 148.387 131.613C148.754 130.88 148.945 130.072 148.945 129.253C148.945 128.433 148.754 127.625 148.387 126.892C148.021 126.16 147.488 125.522 146.831 125.03C146.314 124.642 145.894 124.14 145.605 123.562C145.316 122.985 145.166 122.348 145.166 121.702C145.166 121.057 145.316 120.42 145.605 119.842C145.894 119.265 146.314 118.762 146.831 118.375L147.512 117.863C148.118 117.409 148.619 116.83 148.981 116.166C149.344 115.502 149.559 114.768 149.612 114.014C149.665 113.26 149.555 112.503 149.289 111.795C149.024 111.087 148.609 110.444 148.072 109.91L146.882 108.724L146.092 109.513L147.28 110.701C147.702 111.122 148.028 111.629 148.237 112.187C148.446 112.746 148.532 113.342 148.49 113.937C148.447 114.531 148.277 115.109 147.991 115.632C147.705 116.155 147.309 116.611 146.831 116.968L146.151 117.48C145.494 117.971 144.96 118.609 144.593 119.342C144.226 120.075 144.035 120.883 144.035 121.702C144.035 122.522 144.226 123.33 144.593 124.063C144.96 124.796 145.494 125.433 146.151 125.925C146.668 126.312 147.089 126.815 147.378 127.392C147.668 127.97 147.818 128.607 147.818 129.253C147.818 129.899 147.668 130.536 147.378 131.113C147.089 131.691 146.668 132.193 146.151 132.581C145.494 133.072 144.96 133.709 144.593 134.442C144.226 135.175 144.035 135.984 144.035 136.803C144.035 137.623 144.226 138.431 144.593 139.164C144.96 139.897 145.494 140.534 146.151 141.026L151.201 144.801Z" fill="#1E2022"/>
<path d="M141.789 144.801L146.831 141.026C147.488 140.534 148.021 139.896 148.387 139.163C148.754 138.43 148.945 137.622 148.945 136.803C148.945 135.984 148.754 135.176 148.387 134.443C148.021 133.71 147.488 133.072 146.831 132.58C146.314 132.193 145.894 131.69 145.605 131.113C145.316 130.535 145.166 129.898 145.166 129.253C145.166 128.607 145.316 127.97 145.605 127.393C145.894 126.815 146.314 126.313 146.831 125.925C147.488 125.433 148.021 124.795 148.387 124.063C148.754 123.33 148.945 122.522 148.945 121.702C148.945 120.883 148.754 120.075 148.387 119.342C148.021 118.609 147.488 117.971 146.831 117.48L146.151 116.968C145.673 116.611 145.277 116.155 144.991 115.632C144.705 115.109 144.535 114.531 144.492 113.937C144.45 113.342 144.536 112.746 144.745 112.187C144.954 111.629 145.28 111.122 145.702 110.701L146.89 109.513L146.1 108.724L144.91 109.91C144.373 110.444 143.958 111.086 143.693 111.795C143.427 112.503 143.317 113.26 143.37 114.014C143.423 114.768 143.638 115.502 144.001 116.166C144.363 116.83 144.864 117.409 145.47 117.863L146.151 118.374C146.668 118.762 147.089 119.264 147.378 119.842C147.668 120.419 147.818 121.056 147.818 121.702C147.818 122.348 147.668 122.985 147.378 123.563C147.089 124.14 146.668 124.643 146.151 125.03C145.494 125.521 144.961 126.159 144.593 126.892C144.226 127.625 144.035 128.433 144.035 129.253C144.035 130.072 144.226 130.88 144.593 131.613C144.961 132.346 145.494 132.984 146.151 133.475C146.668 133.863 147.089 134.365 147.378 134.943C147.668 135.52 147.818 136.157 147.818 136.803C147.818 137.449 147.668 138.086 147.378 138.664C147.089 139.241 146.668 139.744 146.151 140.131L141.108 143.906L141.789 144.801Z" fill="#1E2022"/>
<path d="M129.704 145.145L130.503 144.354L130.11 143.957C127.497 141.306 127.497 135.906 130.11 133.255L130.164 133.196C133.141 129.963 133.197 124.216 130.284 120.891C127.819 118.095 127.791 113.12 130.222 110.265L130.587 109.84L129.746 109.116L129.382 109.541C126.581 112.84 126.6 118.375 129.455 121.624C132.015 124.544 131.976 129.591 129.351 132.43L129.312 132.474C126.273 135.55 126.273 141.635 129.326 144.731L129.704 145.145Z" fill="#1E2022"/>
<path d="M130.214 145.145L130.609 144.745C133.662 141.65 133.662 135.573 130.609 132.474L130.581 132.446C127.965 129.605 127.917 124.558 130.477 121.638C133.332 118.389 133.365 112.854 130.55 109.555L130.186 109.13L129.346 109.854L129.687 110.279C132.119 113.131 132.091 118.095 129.629 120.905C126.712 124.225 126.768 129.972 129.749 133.21L129.788 133.255C132.416 135.92 132.416 141.32 129.802 143.971L129.407 144.354L130.214 145.145Z" fill="#1E2022"/>
<path d="M144.784 277.9H153.205L156.417 274.694L150.601 257.253L146.195 263.04L144.784 277.9Z" fill="#1E2022"/>
<path d="M144.778 277.9H153.199L156.411 274.694L150.595 257.253L146.189 263.04L144.778 277.9Z" fill="#1E2022"/>
<path d="M143.331 274.458H157.589V275.083H143.331V274.458Z" fill="#1E2022"/>
<path d="M143.331 271.643H157.589V272.269H143.331V271.643Z" fill="#1E2022"/>
<path d="M143.331 268.827H157.589V269.453H143.331V268.827Z" fill="#1E2022"/>
<path d="M143.331 266.012H157.589V266.637H143.331V266.012Z" fill="#1E2022"/>
<path d="M143.331 263.195H157.589V263.821H143.331V263.195Z" fill="#1E2022"/>
<path d="M143.331 260.381H157.589V261.006H143.331V260.381Z" fill="#1E2022"/>
<path d="M143.331 257.564H157.589V258.19H143.331V257.564Z" fill="#1E2022"/>
<path d="M134.712 277.9H126.289L123.078 274.694L128.895 257.253L133.301 263.04L134.712 277.9Z" fill="#1E2022"/>
<path d="M134.724 277.901H126.301L123.089 274.694L128.907 257.253L133.313 263.041L134.724 277.901Z" fill="#1E2022"/>
<path d="M136.162 275.086H121.904V274.461H136.162V275.086Z" fill="#1E2022"/>
<path d="M136.162 272.27H121.904V271.644H136.162V272.27Z" fill="#1E2022"/>
<path d="M136.162 269.455H121.904V268.829H136.162V269.455Z" fill="#1E2022"/>
<path d="M136.162 266.638H121.904V266.012H136.162V266.638Z" fill="#1E2022"/>
<path d="M136.162 263.823H121.904V263.197H136.162V263.823Z" fill="#1E2022"/>
<path d="M136.162 261.006H121.904V260.38H136.162V261.006Z" fill="#1E2022"/>
<path d="M136.162 258.191H121.904V257.565H136.162V258.191Z" fill="#1E2022"/>
<path d="M146.186 263.224L150.592 257.437C150.592 257.437 147.325 255.315 140.233 255.315C133.142 255.315 128.892 257.437 128.892 257.437L133.298 263.224H146.186Z" fill="#1E2022"/>
<path d="M146.204 263.224L150.61 257.437C150.61 257.437 147.343 255.315 140.251 255.315C133.16 255.315 128.91 257.437 128.91 257.437L133.316 263.224H146.204Z" fill="#1E2022"/>
<path d="M141.733 266.357L149.059 254.146L149.597 254.467L142.271 266.679L141.733 266.357Z" fill="#1E2022"/>
<path d="M140.817 265.818L145.644 252.424L146.234 252.636L141.407 266.029L140.817 265.818Z" fill="#1E2022"/>
<path d="M139.973 265.056L141.874 250.949L142.495 251.032L140.595 265.14L139.973 265.056Z" fill="#1E2022"/>
<path d="M137.244 266.678L129.918 254.467L130.456 254.145L137.782 266.357L137.244 266.678Z" fill="#1E2022"/>
<path d="M138.113 266.033L133.286 252.639L133.876 252.427L138.703 265.821L138.113 266.033Z" fill="#1E2022"/>
<path d="M138.927 265.137L137.026 251.03L137.648 250.946L139.548 265.054L138.927 265.137Z" fill="#1E2022"/>
<path fill-rule="evenodd" clip-rule="evenodd" d="M70.6436 249.134H43.8443L44.2392 249.682C45.3549 251.23 46.8176 252.49 48.5083 253.359C50.1989 254.229 52.0695 254.682 53.9674 254.683H70.6436V252.257H52.0794V251.387H70.6436V249.134ZM69.9508 249.826V250.695H51.3865V252.948H69.9508V253.991H53.9677C52.1804 253.991 50.4183 253.563 48.8255 252.744C47.4368 252.03 46.2108 251.036 45.2222 249.826H69.9508Z" fill="#1E2022"/>
<path fill-rule="evenodd" clip-rule="evenodd" d="M43.0574 249.134H36.9127L37.0321 249.571C37.7323 252.134 39.2461 254.396 41.3423 256.009C43.4385 257.622 46.0015 258.497 48.6385 258.5H70.6436V255.379H53.9676C51.8027 255.379 49.6735 254.82 47.782 253.756C45.8905 252.692 44.299 251.158 43.1588 249.299L43.0574 249.134ZM42.6709 249.826C43.8645 251.711 45.5034 253.269 47.442 254.359C49.437 255.481 51.6831 256.07 53.9674 256.071H69.9508V257.808H48.6393M42.6709 249.826H37.8291H42.6709ZM37.8291 249.826C38.5365 252.064 39.9092 254.033 41.7652 255.461C43.7409 256.981 46.1558 257.805 48.6393 257.808" fill="#1E2022"/>
<path fill-rule="evenodd" clip-rule="evenodd" d="M36.2189 249.134H29.7286L29.7282 249.48C29.7263 251.129 30.0405 252.763 30.6538 254.292L30.7409 254.51H35.9163V255.379H31.1349L31.4309 255.897C32.5472 257.848 34.1531 259.469 36.0875 260.596C38.022 261.723 40.2167 262.316 42.4509 262.316H70.6436V259.196H48.6394C45.7923 259.192 43.0282 258.225 40.7884 256.449C38.5485 254.674 36.962 252.192 36.2831 249.398L36.2189 249.134ZM35.6768 249.826C36.4259 252.66 38.067 255.175 40.3575 256.991C42.719 258.863 45.6345 259.883 48.6384 259.887H69.9508V261.624H42.4508C40.3397 261.624 38.2655 261.064 36.4367 259.998C34.7816 259.034 33.3801 257.687 32.3458 256.071H36.6092V253.818H31.2122C30.7285 252.541 30.4626 251.192 30.4255 249.826H35.6768Z" fill="#1E2022"/>
<path d="M44.5204 271.338C45.6043 272.841 47.0251 274.065 48.6669 274.909C50.3087 275.754 52.1249 276.194 53.9675 276.195H70.2972V274.46H51.7329V272.899H70.2972V271.338H44.5204Z" fill="#1E2022"/>
<path d="M37.3663 271.338C38.0468 273.829 39.5177 276.026 41.5538 277.592C43.5898 279.159 46.0786 280.009 48.6389 280.011H70.2972V277.583H53.9675C51.7429 277.582 49.5553 277.008 47.612 275.915C45.6687 274.822 44.0342 273.247 42.8634 271.338H37.3663Z" fill="#1E2022"/>
<path d="M36.2627 276.021V277.583H31.7317C32.818 279.482 34.3805 281.058 36.2621 282.155C38.1437 283.251 40.2782 283.828 42.4508 283.828H70.2972V281.399H48.6389C45.7134 281.395 42.8736 280.402 40.5729 278.578C38.2723 276.754 36.6434 274.205 35.9465 271.338H30.0746C30.0728 272.943 30.3786 274.533 30.9754 276.021H36.2627Z" fill="#1E2022"/>
<path d="M61.983 209.507L61.8306 185.235C61.847 185.124 61.8386 185.01 61.8063 184.903C61.774 184.795 61.7184 184.696 61.6436 184.612C61.4894 184.514 61.3056 184.472 61.1239 184.495L58.6712 184.529C58.4935 184.51 58.3136 184.526 58.1422 184.577C57.9708 184.628 57.8115 184.713 57.6736 184.827C57.5218 185.044 57.4396 185.302 57.4379 185.567C56.6827 192.602 56.8421 199.706 57.0084 206.782L57.0708 209.293C57.0529 209.469 57.0996 209.646 57.2024 209.791C57.29 209.863 57.3928 209.915 57.5031 209.942C57.6134 209.97 57.7285 209.972 57.8399 209.95L61.8722 209.701" fill="#1E2022"/>
<path fill-rule="evenodd" clip-rule="evenodd" d="M61.1375 185.187L61.2873 209.044L57.7631 209.262L57.701 206.766C57.5346 199.683 57.3773 192.623 58.1268 185.641L58.1306 185.606L58.1308 185.571C58.1313 185.478 58.1529 185.387 58.1934 185.305C58.2394 185.277 58.2888 185.255 58.3405 185.24C58.423 185.215 58.5097 185.208 58.5954 185.217L58.6381 185.222L61.1375 185.187ZM61.6436 184.612C61.7184 184.696 61.774 184.795 61.8063 184.903C61.8386 185.01 61.847 185.124 61.8306 185.235L61.983 209.507L61.8602 209.508L61.8722 209.701L57.8399 209.95C57.7285 209.972 57.6134 209.97 57.5031 209.942C57.3928 209.915 57.29 209.863 57.2024 209.791C57.0996 209.646 57.0529 209.469 57.0708 209.293L57.0084 206.782C56.8421 199.706 56.6827 192.602 57.4379 185.567C57.4396 185.302 57.5218 185.044 57.6736 184.827C57.8115 184.713 57.9708 184.628 58.1422 184.577C58.3136 184.526 58.4935 184.51 58.6712 184.529L61.1239 184.495C61.3056 184.472 61.4894 184.514 61.6436 184.612Z" fill="#1E2022"/>
<path d="M51.972 208.732C51.6394 200.75 51.4085 192.761 51.2791 184.765C51.2791 184.363 51.2306 183.893 50.8772 183.706C50.7085 183.637 50.5256 183.609 50.3437 183.623C50.0028 183.573 49.6552 183.598 49.3249 183.696C48.9947 183.794 48.6897 183.963 48.4315 184.19C48.1423 184.64 48.0107 185.173 48.0574 185.705L47.8149 202.085C47.7472 204.161 47.7841 206.239 47.9257 208.31C47.9176 208.562 48.0014 208.808 48.1613 209.002C48.379 209.154 48.648 209.214 48.9096 209.168L51.4731 209.085" fill="#1E2022"/>
<path fill-rule="evenodd" clip-rule="evenodd" d="M50.5864 184.776C50.7139 192.657 50.94 200.532 51.2647 208.4L48.8385 208.478L48.7905 208.487C48.7415 208.495 48.6917 208.492 48.6451 208.478C48.6259 208.432 48.6166 208.383 48.6182 208.333L48.6193 208.298L48.6169 208.263C48.4769 206.215 48.4404 204.16 48.5074 202.108L48.5076 202.101L48.7507 185.68L48.7476 185.645C48.7171 185.297 48.7931 184.95 48.9643 184.647C49.1302 184.517 49.3195 184.419 49.5222 184.359C49.756 184.29 50.002 184.272 50.2431 184.308L50.3212 184.319L50.3997 184.313C50.4458 184.309 50.4919 184.312 50.5367 184.322C50.5395 184.33 50.5427 184.339 50.546 184.35C50.5734 184.443 50.5863 184.58 50.5863 184.765L50.5864 184.776ZM48.4315 184.19C48.1423 184.64 48.0107 185.173 48.0574 185.705L47.8149 202.085C47.7472 204.161 47.7841 206.239 47.9257 208.31C47.9176 208.562 48.0014 208.808 48.1613 209.002C48.379 209.154 48.648 209.214 48.9096 209.168L51.4731 209.085L51.4623 208.754L51.972 208.732C51.6394 200.75 51.4085 192.761 51.2791 184.765C51.2791 184.363 51.2306 183.893 50.8772 183.706C50.7085 183.637 50.5256 183.609 50.3437 183.623C50.0028 183.573 49.6552 183.598 49.3249 183.696C48.9947 183.794 48.6897 183.963 48.4315 184.19Z" fill="#1E2022"/>
<path d="M42.6326 208.158C43.2377 200.653 43.2887 193.114 42.7851 185.601C42.7922 185.166 42.6847 184.737 42.4733 184.356C41.8358 183.416 40.2285 183.838 39.6465 184.813C39.0645 185.788 39.1546 187.006 39.1477 188.14C39.1477 191.294 38.1915 194.483 38.8358 197.575C39.113 198.896 39.6672 200.141 40.0414 201.442C40.5481 203.218 40.7127 205.075 40.5264 206.913C40.4433 207.743 40.0761 208.767 39.2377 208.829C40.402 208.644 41.5943 208.758 42.702 209.161C42.9164 209.063 43.0848 208.886 43.1725 208.667C43.2601 208.448 43.2603 208.204 43.173 207.985" fill="#1E2022"/>
<path fill-rule="evenodd" clip-rule="evenodd" d="M42.0919 185.619L42.0938 185.648C42.5951 193.126 42.5443 200.632 41.942 208.103L42.6326 208.158C43.2377 200.653 43.2887 193.114 42.7851 185.601C42.7922 185.166 42.6847 184.737 42.4733 184.356C41.8358 183.416 40.2285 183.838 39.6465 184.813C39.1378 185.665 39.1426 186.703 39.1472 187.708C39.1479 187.853 39.1485 187.997 39.1477 188.14C39.1477 189.322 39.0135 190.508 38.8795 191.693C38.6559 193.67 38.4329 195.641 38.8358 197.575C39.0031 198.372 39.2714 199.142 39.54 199.913C39.7165 200.419 39.8931 200.926 40.0414 201.442C40.5481 203.218 40.7127 205.075 40.5264 206.913C40.4888 207.289 40.393 207.704 40.2217 208.052C40.0378 208.425 39.7667 208.721 39.387 208.807C39.7929 208.751 40.2015 208.732 40.6082 208.748C41.3206 208.777 42.027 208.915 42.702 209.161C42.9164 209.063 43.0848 208.886 43.1725 208.667C43.2315 208.52 43.2508 208.361 43.2306 208.206C43.2207 208.131 43.2016 208.057 43.173 207.985L42.6326 208.158L42.72 208.165L42.5293 208.241C42.5468 208.285 42.5501 208.333 42.5393 208.378C42.0253 208.223 41.4974 208.122 40.9648 208.078C41.105 207.709 41.1817 207.322 41.2158 206.982C41.4109 205.057 41.2384 203.113 40.7077 201.252L40.7073 201.251C40.5532 200.715 40.3684 200.185 40.1913 199.677C40.146 199.547 40.1011 199.418 40.0575 199.291C39.8391 198.657 39.6434 198.05 39.5141 197.434C39.2145 195.996 39.2825 194.513 39.4395 192.95C39.4773 192.573 39.5208 192.19 39.5648 191.801C39.6998 190.607 39.8403 189.366 39.8405 188.142V188.144M39.387 208.807C39.339 208.818 39.2893 208.825 39.2377 208.829C39.2875 208.821 39.3372 208.814 39.387 208.807ZM39.8405 188.142C39.8415 187.983 39.8408 187.829 39.8401 187.678C39.8382 187.258 39.8364 186.868 39.8715 186.479C39.9177 185.965 40.0243 185.531 40.2417 185.167C40.4197 184.869 40.7868 184.621 41.174 184.545C41.5405 184.472 41.7676 184.57 41.8841 184.723C42.0256 184.99 42.0973 185.288 42.0924 185.59L42.0919 185.619" fill="#1E2022"/>
</g>
<path opacity="0.2" d="M21 56.0001V51.2244H54.4293V17.7951H59.205V56.0001H21Z" fill="url(#paint3_linear_4945_30388)"/>
<path opacity="0.3" d="M75.2219 19V45.5833H93L75.2219 63.3015L75.2219 75.2819H48.3403V93L30.5622 75.2819H20V71.959H31.9433L45.0062 84.9778V71.959H71.8878V61.9251L84.9506 48.9062H71.8878V19H75.2219Z" fill="url(#paint4_linear_4945_30388)"/>
<defs>
<linearGradient id="paint0_linear_4945_30388" x1="134.5" y1="2" x2="134.5" y2="397" gradientUnits="userSpaceOnUse">
<stop stop-color="#27292C"/>
<stop offset="1" stop-color="#27292C" stop-opacity="0"/>
</linearGradient>
<linearGradient id="paint1_linear_4945_30388" x1="154.5" y1="18" x2="154.5" y2="416" gradientUnits="userSpaceOnUse">
<stop stop-color="#27292C"/>
<stop offset="1" stop-color="#27292C" stop-opacity="0"/>
</linearGradient>
<linearGradient id="paint2_linear_4945_30388" x1="154.5" y1="18" x2="154.5" y2="416" gradientUnits="userSpaceOnUse">
<stop stop-color="#27292C"/>
<stop offset="0.515625" stop-color="#27292C" stop-opacity="0.25"/>
<stop offset="1" stop-color="#27292C" stop-opacity="0"/>
</linearGradient>
<linearGradient id="paint3_linear_4945_30388" x1="40.1025" y1="56.0001" x2="40.1025" y2="17.7951" gradientUnits="userSpaceOnUse">
<stop stop-color="#27292C"/>
<stop offset="1" stop-color="#27292C" stop-opacity="0"/>
</linearGradient>
<linearGradient id="paint4_linear_4945_30388" x1="56.5" y1="19" x2="56.5" y2="93" gradientUnits="userSpaceOnUse">
<stop stop-color="#27292C"/>
<stop offset="1" stop-color="#27292C" stop-opacity="0"/>
</linearGradient>
</defs>
</svg>
